<?xml version="1.0" encoding="UTF-8" standalone="no"?>
<!-- Created with Inkscape (http://www.inkscape.org/) -->

<svg
   xmlns:dc="http://purl.org/dc/elements/1.1/"
   xmlns:cc="http://creativecommons.org/ns#"
   xmlns:rdf="http://www.w3.org/1999/02/22-rdf-syntax-ns#"
   xmlns:svg="http://www.w3.org/2000/svg"
   xmlns="http://www.w3.org/2000/svg"
   xmlns:sodipodi="http://sodipodi.sourceforge.net/DTD/sodipodi-0.dtd"
   xmlns:inkscape="http://www.inkscape.org/namespaces/inkscape"
   version="1.1"
   id="svg2"
   width="32.344269"
   height="31.948462"
   viewBox="0 0 32.344269 31.948462"
   sodipodi:docname="icon_LZK.svg"
   inkscape:version="0.92.4 (5da689c313, 2019-01-14)"
   inkscape:export-filename="/home/capturixeur3-dev/Bureau/Librazik3/04-Constructions-propres/Reconstructions-propres/FAITES/LZK-PAP-USERS/0_librazik*/librazik-theme-icons/librazik-theme-icons-3.03/16x16/places/start-here.png"
   inkscape:export-xdpi="47.489094"
   inkscape:export-ydpi="47.489094">
  <metadata
     id="metadata8">
    <rdf:RDF>
      <cc:Work
         rdf:about="">
        <dc:format>image/svg+xml</dc:format>
        <dc:type
           rdf:resource="http://purl.org/dc/dcmitype/StillImage" />
        <dc:title />
      </cc:Work>
    </rdf:RDF>
  </metadata>
  <defs
     id="defs6" />
  <sodipodi:namedview
     pagecolor="#dbdbdb"
     bordercolor="#666666"
     borderopacity="1"
     objecttolerance="10"
     gridtolerance="10"
     guidetolerance="10"
     inkscape:pageopacity="0"
     inkscape:pageshadow="2"
     inkscape:window-width="1628"
     inkscape:window-height="1017"
     id="namedview4"
     showgrid="false"
     inkscape:zoom="13.906434"
     inkscape:cx="-1.393596"
     inkscape:cy="16.62199"
     inkscape:window-x="44"
     inkscape:window-y="0"
     inkscape:window-maximized="1"
     inkscape:current-layer="svg2"
     fit-margin-top="0"
     fit-margin-left="0"
     fit-margin-right="0"
     fit-margin-bottom="0"
     inkscape:snap-global="false" />
  <rect
     style="fill:#888888;fill-opacity:0.40000001;fill-rule:evenodd;stroke:#555555;stroke-width:0.7594986;stroke-linecap:round;stroke-linejoin:round;stroke-opacity:0.40000001"
     id="rect818"
     width="22.392111"
     height="22.228266"
     x="4.976079"
     y="4.8600979"
     ry="3.5499685"
     rx="3.713814" />
  <g
     inkscape:groupmode="layer"
     id="start-here-kde"
     inkscape:label="Layer 1">
    <g
       style="fill:#383838;fill-opacity:1;stroke-width:2.90161157"
       transform="matrix(0.33089932,0,0,0.33089932,-4.0489673,5.9109573)"
       id="g820">
      <path
         transform="matrix(2.9016115,0,0,2.9016115,14.185032,-15.940221)"
         style="fill:#383838;fill-opacity:1;stroke:none;stroke-width:0.99999994;stroke-miterlimit:4;stroke-dasharray:none;stroke-opacity:1"
         d="m 21.130859,-0.609375 c -0.40299,0 -0.818275,0.0356966 -1.248047,0.10742188 -0.386179,0.0486828 -0.676842,0.0855955 -0.890624,0.12695312 A 0.60985172,0.60985172 0 0 0 18.498047,0.22460938 V 10.449219 H 9.5175781 c -0.5903674,0 -1.1535797,0.199841 -1.5683593,0.591797 a 0.60985172,0.60985172 0 0 0 -0.013672,0.01172 c -0.4476394,0.447311 -0.6015625,1.090761 -0.6015625,1.828125 0,0.407774 0.058533,0.804979 0.1757812,1.181641 a 0.60985172,0.60985172 0 0 0 0,0.002 c 0.1106571,0.349795 0.2351903,0.644436 0.3945313,0.894531 a 0.60985172,0.60985172 0 0 0 0.5136719,0.28125 H 13.603516 L 9.7695312,23.480469 H 4.9785156 V 8.796875 c 0,-0.4793628 -0.049168,-0.8943836 -0.1855468,-1.2617188 a 0.60985172,0.60985172 0 0 0 -0.00195,-0.00195 C 4.6573505,7.1771285 4.4358515,6.8607027 4.1367188,6.6367188 3.8476344,6.4202583 3.5031603,6.2944725 3.1367188,6.2304688 2.8449807,6.1654759 2.5128624,6.1388545 2.1601562,6.1308594 A 0.60985172,0.60985172 0 0 0 2.0214844,6.1152344 c -0.4029909,0 -0.8150291,0.0358 -1.24414065,0.1074218 -0.38584449,0.048606 -0.67859757,0.086825 -0.89453125,0.1289063 A 0.60985172,0.60985172 0 0 0 -0.609375,6.9492188 V 25.289062 c 0,0.834531 0.26355871,1.589663 0.80273438,2.128907 0.54062918,0.54063 1.29751142,0.800781 2.13085942,0.800781 h 5.0546874 c -0.2094954,0.459724 -0.3554687,0.932112 -0.3554687,1.408203 0,0.588719 0.1058718,1.136266 0.3300781,1.625 0.2143153,0.467311 0.503095,0.866756 0.8691406,1.167969 a 0.60985172,0.60985172 0 0 0 0.3867188,0.138672 h 9.837891 c 0.586327,0 1.144851,-0.20223 1.544922,-0.597656 0.463757,-0.441917 0.638671,-1.094417 0.638671,-1.835938 0,-0.407233 -0.05784,-0.802668 -0.175781,-1.179688 a 0.60985172,0.60985172 0 0 0 0,-0.002 c -0.110874,-0.350484 -0.236246,-0.64414 -0.394531,-0.892578 a 0.60985172,0.60985172 0 0 0 -0.513672,-0.28125 h -5.443359 l 4.394531,-9.566406 v 1.228516 c 0,0.481187 0.05201,0.896813 0.1875,1.261718 a 0.60985172,0.60985172 0 0 0 0.002,0.002 c 0.133315,0.355139 0.353098,0.67292 0.654297,0.898438 0.283024,0.211922 0.618282,0.343422 0.974609,0.408203 0.344827,0.07305 0.724165,0.111328 1.138672,0.111328 0.407731,0 0.824461,-0.02417 1.25,-0.07813 0.411103,-0.05121 0.710926,-0.09721 0.958984,-0.166015 a 0.60985172,0.60985172 0 0 0 0.447266,-0.587891 v -3.876953 l 2.451172,2.847656 c 0.42142,0.491808 0.863901,0.925735 1.328125,1.300781 a 0.60985172,0.60985172 0 0 0 0.01172,0.0078 c 0.554708,0.426612 1.261643,0.628906 2.044922,0.628906 0.381363,0 0.751439,-0.06288 1.099609,-0.185547 0.355092,-0.12542 0.67691,-0.321014 0.951172,-0.572265 0.292127,-0.252815 0.532343,-0.562878 0.699219,-0.917969 h -0.002 c 0.176934,-0.375141 0.257813,-0.793028 0.257813,-1.232422 A 0.60985172,0.60985172 0 0 0 32.785158,18.86131 c -0.332083,-0.348698 -0.706271,-0.738426 -1.11914,-1.167969 l -0.0078,-0.0078 c -0.397161,-0.430372 -0.808934,-0.879515 -1.240234,-1.34375 l 0.0059,0.0098 C 29.98843,15.866063 29.545971,15.380169 29.09375,14.894531 28.646982,14.414896 28.218146,13.943342 27.804688,13.480469 a 0.60985172,0.60985172 0 0 0 -0.01172,-0.01172 l -2.56836,-2.716797 5.673829,-5.5722655 a 0.60985172,0.60985172 0 0 0 0.0039,-0.00391 c 0.506411,-0.5065222 0.891283,-0.9695346 1.15039,-1.4277343 0.265173,-0.4695886 0.400391,-0.9908944 0.400391,-1.5234375 0,-0.7506314 -0.357363,-1.44932458 -0.957031,-1.95507815 -0.65986,-0.58905655 -1.617458,-0.80273438 -2.824219,-0.80273437 a 0.60985172,0.60985172 0 0 0 -0.460937,0.20898437 L 24.087891,4.4121094 V 2.0722656 c 0,-0.4812054 -0.0524,-0.8958231 -0.1875,-1.2597656 a 0.60985172,0.60985172 0 0 0 -0.002,-0.001953 c -0.133883,-0.35664581 -0.354469,-0.6744732 -0.65625,-0.90039063 -0.285751,-0.21396051 -0.628436,-0.34204407 -0.996094,-0.40625 -0.333151,-0.074219 -0.702255,-0.11328125 -1.115235,-0.11328125 z"
         id="path816"
         inkscape:connector-curvature="0" />
      <g
         id="g818"
         transform="matrix(13.478065,-1.4087188,1.4708052,12.909122,-1383.5701,-191.81988)"
         style="fill:#383838;fill-opacity:1;stroke:#ffffff;stroke-width:0.63349372;stroke-opacity:1"
         inkscape:export-xdpi="105.6"
         inkscape:export-ydpi="105.6" />
    </g>
    <g
       id="g825"
       transform="matrix(0.33089932,0,0,0.33089932,-2.4381321,11.330423)"
       style="stroke-width:2.90161157">
      <path
         inkscape:export-ydpi="105.6"
         inkscape:export-xdpi="105.6"
         id="path5577"
         d="m 70.628332,-32.316811 c -1.06337,0 -2.17418,0.09562 -3.3337,0.289134 -1.159104,0.14589 -2.003035,0.262299 -2.534437,0.365102 v 55.727434 c 0,1.256013 0.147402,2.271194 0.434495,3.044372 0.290268,0.773254 0.721663,1.376957 1.301972,1.811452 0.58027,0.434494 1.27986,0.72034 2.10066,0.867628 0.86895,0.187087 1.86474,0.289134 2.97581,0.289134 1.1105,0 2.24266,-0.06614 3.40222,-0.213165 1.1591,-0.144378 2.00304,-0.286488 2.5344,-0.43389 V 13.409313 l 10.22151,11.888315 c 1.15903,1.352617 2.36674,2.531943 3.62279,3.546708 1.25627,0.966161 2.87504,1.453682 4.85582,1.453682 0.91756,0 1.78167,-0.144378 2.60296,-0.433738 0.82182,-0.290268 1.548658,-0.728769 2.176818,-1.30904 0.67601,-0.579704 1.21209,-1.278841 1.59829,-2.100623 0.38732,-0.821216 0.57879,-1.760277 0.57879,-2.823648 -0.96616,-1.0145 -2.0575,-2.153423 -3.265058,-3.409738 -1.1591,-1.256013 -2.36685,-2.559988 -3.62298,-3.912038 -1.25635,-1.40092 -2.53164,-2.800592 -3.83595,-4.201285 -1.30492,-1.40092 -2.55972,-2.7806742 -3.76743,-4.1327252 l -8.64598,-9.140787 17.70301,-17.3833698 c 1.40065,-1.400958 2.416478,-2.656933 3.044478,-3.767471 0.62741,-1.111068 0.93668,-2.290356 0.93668,-3.546709 0,-1.690772 -0.72018,-3.145739 -2.169138,-4.353449 -1.4007,-1.256579 -3.7474,-1.879937 -7.03242,-1.879937 l -15.06981,17.314961 v -11.522986 c 0,-1.256013 -0.1474,-2.263559 -0.43442,-3.036775 -0.29026,-0.773216 -0.72907,-1.384592 -1.30937,-1.819011 -0.58028,-0.434494 -1.29903,-0.72034 -2.16915,-0.867628 -0.82182,-0.187087 -1.78859,-0.289134 -2.89965,-0.289134 z m -55.444124,19.514533 c -1.063371,0 -2.166501,0.09562 -3.325909,0.289134 -1.159106,0.145889 -2.0106711,0.254362 -2.5420731,0.357921 v 53.215862 c 0,2.077417 0.603855,3.716598 1.8114151,4.924309 1.20771,1.20771 2.854601,1.811414 4.931867,1.811414 h 19.415623 c 1.35205,0 2.443842,-0.383811 3.265058,-1.156876 0.821858,-0.821253 1.232768,-2.200252 1.232768,-4.132724 0,-0.966161 -0.147401,-1.886211 -0.434494,-2.7552 -0.290268,-0.917594 -0.605329,-1.637443 -0.944051,-2.169147 H 21.994916 V -6.7894652 c 0,-1.256013 -0.147401,-2.271156 -0.434456,-3.044334 -0.290268,-0.7732538 -0.721701,-1.3769578 -1.301972,-1.8114518 -0.580271,-0.434495 -1.307868,-0.720341 -2.176819,-0.867629 -0.821821,-0.187086 -1.788737,-0.289134 -2.899805,-0.289134 z m 21.745738,12.57354281 c -1.35205,0 -2.464025,0.411175 -3.333581,1.23288199 -0.82182,0.821216 -1.232731,2.17251 -1.232731,4.056643 0,1.014501 0.147402,1.982249 0.433021,2.899805 0.290268,0.917555 0.605291,1.645039 0.94405,2.1767432 H 51.565562 L 34.65399,46.472053 c -0.868951,1.062766 -1.617297,2.221909 -2.245304,3.478186 -0.627401,1.256013 -0.94405,2.491238 -0.94405,3.698948 0,1.497676 0.267969,2.821455 0.79971,3.980561 0.531704,1.15937 1.210659,2.079118 2.032214,2.755162 h 28.548662 c 1.352051,0 2.43617,-0.411213 3.257575,-1.233033 0.868955,-0.821254 1.309305,-2.172661 1.309305,-4.05668 0,-1.014615 -0.1474,-1.982174 -0.43446,-2.899767 -0.290265,-0.917556 -0.605327,-1.637443 -0.944086,-2.169147 H 47.477928 L 64.176523,13.683971 c 0.868951,-1.062765 1.569109,-2.174476 2.10051,-3.333581 0.580269,-1.2078622 0.867479,-2.4151182 0.867479,-3.6227912 0,-2.898557 -1.063372,-5.217335 -3.18894,-6.95644699 z"
         style="fill:#ffffff;fill-opacity:1;stroke:none;stroke-width:2.90161133;stroke-miterlimit:4;stroke-dasharray:none;stroke-opacity:1"
         inkscape:connector-curvature="0"
         sodipodi:nodetypes="cccscccscccccscccccccccccscccsccccccccscsscscccscccccccscccccsccscscccccscc" />
      <g
         inkscape:export-ydpi="105.6"
         inkscape:export-xdpi="105.6"
         style="fill:#ffffff;fill-opacity:1;stroke:#ffffff;stroke-width:0.63349372;stroke-opacity:1"
         transform="matrix(13.478065,-1.4087188,1.4708052,12.909122,-1383.5701,-191.81988)"
         id="g1354" />
    </g>
  </g>
</svg>
