<?xml version="1.0" encoding="UTF-8" standalone="no"?>
<svg
   xmlns:dc="http://purl.org/dc/elements/1.1/"
   xmlns:cc="http://creativecommons.org/ns#"
   xmlns:rdf="http://www.w3.org/1999/02/22-rdf-syntax-ns#"
   xmlns:svg="http://www.w3.org/2000/svg"
   xmlns="http://www.w3.org/2000/svg"
   xmlns:sodipodi="http://sodipodi.sourceforge.net/DTD/sodipodi-0.dtd"
   xmlns:inkscape="http://www.inkscape.org/namespaces/inkscape"
   inkscape:export-ydpi="96"
   inkscape:export-xdpi="96"
   inkscape:export-filename="/home/elisa/Pro/Activstudio/LibraZIK/fond-ecran-1755x1167-couleur-JardinModerne.png"
   sodipodi:docname="logo-LZK3_light.svg"
   inkscape:version="0.92.4 (5da689c313, 2019-01-14)"
   id="svg1564"
   version="1.1"
   viewBox="0 0 99.627549 24.991075"
   height="94.454453"
   width="376.5451">
  <defs
     id="defs1558">
    <clipPath
       id="clipPath18"
       clipPathUnits="userSpaceOnUse">
      <path
         inkscape:connector-curvature="0"
         id="path16"
         d="M 0,595.28 H 841.89 V 0 H 0 Z" />
    </clipPath>
  </defs>
  <sodipodi:namedview
     inkscape:document-rotation="0"
     units="px"
     fit-margin-bottom="0"
     fit-margin-right="0"
     fit-margin-left="0"
     fit-margin-top="0"
     inkscape:window-maximized="1"
     inkscape:window-y="0"
     inkscape:window-x="44"
     inkscape:window-height="1017"
     inkscape:window-width="1628"
     showgrid="false"
     inkscape:current-layer="layer1"
     inkscape:document-units="mm"
     inkscape:cy="174.05669"
     inkscape:cx="272.06062"
     inkscape:zoom="0.93852459"
     inkscape:pageshadow="2"
     inkscape:pageopacity="1"
     borderopacity="1.0"
     bordercolor="#666666"
     pagecolor="#ffffff"
     id="base" />
  <metadata
     id="metadata1561">
    <rdf:RDF>
      <cc:Work
         rdf:about="">
        <dc:format>image/svg+xml</dc:format>
        <dc:type
           rdf:resource="http://purl.org/dc/dcmitype/StillImage" />
        <dc:title></dc:title>
      </cc:Work>
    </rdf:RDF>
  </metadata>
  <g
     transform="translate(-157.15179,41.241346)"
     id="layer1"
     inkscape:groupmode="layer"
     inkscape:label="Calque 1">
    <path
       id="path6377"
       d="m 157.15179,-30.535021 v 13.68792 h 0.22182 v 0.03306 h 11.97227 c -0.33108,-0.239796 -0.65273,-0.507952 -0.96349,-0.809134 h -10.49332 v -2.412429 h 8.69074 c -0.136,-0.264153 -0.25691,-0.534627 -0.36561,-0.80913 h -8.32513 v -2.41246 h 7.76322 c -0.0116,-0.193402 -0.0144,-0.519142 -0.0174,-0.80913 h -7.74675 v -2.410922 h 7.75124 c -0.003,-0.0059 -0.0115,-0.0116 -0.0145,-0.01449 -0.0608,-0.09047 -0.0821,-0.153678 -0.0974,-0.202391 -0.0612,-0.194563 -0.0412,-0.232837 -0.0405,-0.298194 0.001,-0.122363 0.0115,-0.20645 0.0345,-0.2937 h -7.63438 v -2.412429 h 9.47141 c 0.14585,-0.242116 0.30478,-0.460427 0.55591,-0.693757 0.0406,-0.0377 0.0763,-0.07307 0.1215,-0.115403 h -10.14871 v -0.0261 z m 20.66901,0.0261 c 0.26328,0.255454 0.49589,0.527204 0.70273,0.80913 h 2.87843 v -0.80913 z m 7.58791,0 v 0.80913 h 8.27119 v -0.719214 a 0.75482177,0.75482177 0 0 1 0.006,-0.08989 z m 11.9363,0 c 0.0475,0.0809 0.0998,0.160927 0.13193,0.245885 0.0731,0.185574 0.10352,0.37251 0.11976,0.563391 h 4.70948 c 0.0145,-0.03741 0.0203,-0.07713 0.0389,-0.113954 a 0.75482177,0.75482177 0 0 1 0.009,-0.0174 c 0.13541,-0.255744 0.32502,-0.478925 0.54692,-0.659309 0.009,-0.0059 0.0203,-0.01159 0.029,-0.0203 z m 10.95633,0 c 0.13136,0.251394 0.20239,0.531176 0.21428,0.80913 h 9.40248 c 0.0357,-0.04582 0.0635,-0.09511 0.10641,-0.13773 a 0.75482177,0.75482177 0 0 1 0.0145,-0.01449 c 0.31319,-0.295932 0.75549,-0.449524 1.17474,-0.449524 h 5.32086 a 0.75482177,0.75482177 0 0 1 0.47797,0.170786 c 0.15455,0.126423 0.28735,0.273142 0.40458,0.431518 h 1.54484 c 0.003,-0.278071 0.0667,-0.553417 0.17688,-0.809131 z m 22.61839,0 c 0.11367,0.255164 0.17834,0.531002 0.18124,0.80913 h 0.64132 v -0.80913 z m 6.45366,0 -0.81215,0.797155 0.0115,0.01159 h 11.57369 0.0464 v -0.80913 h -0.0464 z m -65.54022,0.795647 c 0.003,0.0029 0.006,0.0087 0.0115,0.0116 7.4e-4,9.63e-4 0.001,5.79e-4 0.003,0.0015 h 0.006 c -0.006,-0.0059 -0.0115,-0.0087 -0.0174,-0.01449 z m -3.08972,2.425913 c -0.0341,0.03624 -0.10844,0.105545 -0.12584,0.127292 -0.029,0.03596 -0.0145,0.0174 -0.0389,0.04929 -7.4e-4,0.01449 -0.006,0.09859 -0.0116,0.124393 -0.006,0.029 -0.009,0.04523 -0.0144,0.06002 -0.009,0.02929 -0.0144,0.04582 -0.0174,0.05857 -0.009,0.0261 -0.0145,0.03798 -0.0203,0.04959 -0.009,0.0232 -0.0144,0.0377 -0.0231,0.05538 -0.0174,0.03567 -0.0354,0.07684 -0.0585,0.124393 -0.0203,0.04378 -0.0542,0.106994 -0.0809,0.160347 h 2.34351 c 0.0963,-0.190503 0.19921,-0.357317 0.32966,-0.485479 a 0.75482177,0.75482177 0 0 0 0,-0.0015 c -0.006,0.0059 0.0789,-0.108735 0.0464,-0.05249 0.0583,-0.100616 0.13512,-0.181515 0.20529,-0.269663 z m 6.85669,0 c 0.0174,0.0203 0.0305,0.03711 0.0629,0.100326 0.0116,0.0203 0.0232,0.04494 0.0359,0.07945 0.0115,0.03451 0.0389,0.142081 0.0389,0.142371 6e-5,3.47e-4 -0.003,0.267922 -0.003,0.268212 -3e-5,1.45e-4 -0.058,0.111634 -0.11396,0.218919 h 0.90204 c -0.0305,-0.09859 -0.0359,-0.179485 -0.0359,-0.28619 0,0.124102 -0.0473,-0.247914 -0.11395,-0.448015 -0.009,-0.0232 -0.0232,-0.05103 -0.0316,-0.07481 z m 3.72954,0 c 0,0.0027 3e-5,0.0018 0,0.0059 -2.3e-4,0.02029 -7.4e-4,0.04755 -0.006,0.0809 -0.003,0.03334 -0.0261,0.131641 -0.0261,0.131931 -9e-5,3.2e-4 -0.10787,0.221529 -0.10787,0.221819 -5e-5,8.7e-5 -0.0864,0.06843 -0.17223,0.136281 -0.006,0.03334 -0.0116,0.07307 -0.0116,0.07336 -2e-5,8.8e-5 -0.009,0.0261 -0.0174,0.04959 0.006,0.03799 0.0174,0.07423 0.029,0.110764 h 2.38247 v -0.809194 z m 6.07903,0 v 0.80916 h 3.35943 c 0.0948,-0.288509 0.24385,-0.558983 0.45401,-0.77767 a 0.75482177,0.75482177 0 0 1 0.0116,-0.0116 c 0.009,-0.0087 0.0174,-0.01159 0.0261,-0.0203 z m 6.78628,0 c 0.0116,0.01159 0.0232,0.0174 0.0345,0.029 0.21631,0.218048 0.37152,0.490088 0.47049,0.780684 h 0.97994 v -0.809159 z m 5.4197,0 v 0.434562 c 0.20501,-0.0261 0.40969,-0.05103 0.62937,-0.05103 0.54601,0 1.0773,0.100326 1.57479,0.296686 0.0963,0.03798 0.18935,0.08351 0.28155,0.128742 h 2.04984 v -0.809159 z m 8.4705,0 v 0.80916 h 2.96085 c -0.0261,-0.128742 -0.045,-0.259514 -0.045,-0.391097 0,-0.138311 0.0174,-0.278941 0.0479,-0.418063 z m 10.14119,0 c 0.056,0.08844 0.1099,0.178035 0.15572,0.272851 0.0847,0.170206 0.14614,0.350706 0.1963,0.536424 h 4.20451 l 0.1273,-0.272851 h -2.32403 a 0.75482177,0.75482177 0 0 1 -0.6368,-0.350647 c -0.0382,-0.06002 -0.0664,-0.123523 -0.0974,-0.185864 z m 9.49839,0 c -0.0203,0.04785 -0.029,0.09858 -0.0511,0.145269 -0.10583,0.229648 -0.25487,0.44068 -0.40904,0.648812 l -0.001,0.0059 -0.006,0.01159 h 1.81603 v -0.809159 z m 5.1725,0 c 0.0585,0.202971 0.0928,0.40806 0.0928,0.621847 v 0.187313 h 0.75221 v -0.80916 z m 7.91757,0 c 0.14729,0.160927 0.29639,0.321796 0.44052,0.482492 l 0.009,0.01159 c 0.10119,0.109024 0.19398,0.21022 0.29219,0.316171 h 8.59036 0.0464 v -0.809159 h -0.0464 z m -70.93897,3.220951 c -1.7e-4,0.01449 -0.003,0.03334 -0.003,0.04785 -0.001,0.242695 0.0232,0.469324 0.0203,0.458512 a 0.75482177,0.75482177 0 0 0 0,0.0015 c 0.009,0.03711 0.0786,0.186154 0.0174,0.078 0.0232,0.04118 0.0608,0.124972 0.0945,0.223268 h 2.1517 c 0.009,-0.05103 0.006,-0.09772 0.0261,-0.158897 0.0203,-0.05857 0.0455,-0.124392 0.12439,-0.224718 0.0305,-0.03856 0.087,-0.08757 0.14846,-0.134832 -0.031,-0.100036 -0.0858,-0.192242 -0.12294,-0.290683 z m 4.54765,0 c 0.0447,0.09482 0.0855,0.190503 0.14527,0.280101 0.009,0.01449 0.22096,0.21196 0.39409,0.374598 -0.0116,-0.05306 -0.0554,-0.127873 -0.0554,-0.158898 0,-9.63e-4 0.0864,-0.352851 0.087,-0.353633 2.4e-4,-4.36e-4 0.0577,-0.09482 0.0884,-0.131932 0.003,-0.0029 0.006,-0.0059 0.0116,-0.01159 z m 3.5707,0 a 0.75482177,0.75482177 0 0 1 -0.0928,0.265312 l -0.0464,0.07945 a 0.75482177,0.75482177 0 0 1 -0.001,0.0029 c 0.0479,-0.04147 0.0577,-0.04437 0.11252,-0.09279 0.10032,-0.08873 0.10902,-0.100325 0.11975,-0.109314 0.009,-0.03944 0.0116,-0.09366 0.0116,-0.14527 z m 2.55179,0 c -0.0261,0.09221 -0.0539,0.184414 -0.10496,0.292192 a 0.75482177,0.75482177 0 0 0 -10e-4,0 c -0.0362,0.07626 -0.0717,0.161217 -0.096,0.223269 -0.0116,0.03103 -0.0203,0.07336 -0.0261,0.08844 l -0.009,0.04494 a 0.75482177,0.75482177 0 0 1 -0.045,0.160347 h 3.13617 v -0.809131 z m 6.8627,0 v 0.809131 h 3.3609 v -0.534917 a 0.75482177,0.75482177 0 0 1 0.0525,-0.274301 z m 6.87167,0 c 0.10671,0.131932 0.19775,0.274302 0.25778,0.425544 0.0562,0.126423 0.0919,0.254005 0.11829,0.383587 h 1.02342 v -0.809131 z m 9.87748,0 c 0.0829,0.257774 0.1415,0.528277 0.17978,0.809131 h 0.31919 c -0.14266,-0.14237 -0.26648,-0.301267 -0.34915,-0.477968 a 0.75482177,0.75482177 0 0 1 -0.0232,-0.05393 c -0.0342,-0.09105 -0.0507,-0.184124 -0.0705,-0.277201 z m 3.92733,0 v 0.440535 a 0.75482177,0.75482177 0 0 1 -0.0974,0.368596 h 1.68121 v -0.197752 c 0,-0.218339 0.0547,-0.424587 0.14527,-0.61135 z m 11.33093,0 c 0.11279,0.178035 0.19166,0.377006 0.19166,0.61135 v 0.197752 h 1.67675 l 0.37758,-0.80913 z m 6.73383,0 -0.37158,0.809131 h 3.29648 v -0.809131 z m 6.84022,0 v 0.809131 h 1.34408 c -0.2082,-0.174845 -0.36863,-0.401622 -0.45852,-0.641302 -0.0203,-0.05538 -0.0262,-0.112215 -0.042,-0.167886 z m 4.77241,0 v 0.359637 a 0.75482177,0.75482177 0 0 1 -0.14992,0.449494 h 1.61978 c -0.27605,-0.225878 -0.53727,-0.482434 -0.78518,-0.771667 l -0.0313,-0.03741 z m 4.89679,0 c -0.0115,0.03103 -0.0174,0.06408 -0.0316,0.09453 v 0.0014 c -0.1183,0.251105 -0.29225,0.473764 -0.49897,0.653307 -0.0262,0.0232 -0.0551,0.03856 -0.0809,0.06003 h 8.0989 0.0464 v -0.80913 h -0.0464 z m -65.52224,0.773175 c -0.0475,0.0019 -0.0963,0.0232 -0.13627,0.0174 a 0.75482177,0.75482177 0 0 1 -0.0116,0.0174 h 0.10351 c 0.006,-0.0059 0.029,-0.0232 0.0435,-0.03596 z m -6.00858,2.448415 c -0.006,0.04611 -0.0116,0.09018 -0.0262,0.155708 0.0302,0.04059 0.0519,0.03421 0.0989,0.185864 0.009,0.0316 -0.0174,0.09192 -0.0115,0.13628 0.029,0.03247 0.0496,0.04175 0.0899,0.110765 0.0232,0.03972 0.0438,0.132221 0.0629,0.220369 h 12.54163 c -0.19602,-0.233997 -0.33053,-0.51088 -0.40455,-0.809131 h -6.50017 c -10e-4,0.0014 -0.006,0.0029 -0.006,0.0059 -0.0882,0.0606 -0.12294,0.06959 -0.15136,0.0809 -0.11338,0.04552 -0.11367,0.03682 -0.14237,0.04494 -0.38669,0.107574 -0.66528,0.105545 -1.02941,0.05538 -0.23372,-0.03218 -0.4292,-0.104096 -0.60384,-0.185864 z m 23.5759,0 v 0.809131 h 1.09833 c -0.0722,-0.208771 -0.12294,-0.424704 -0.12294,-0.647334 v -0.161797 z m 9.44743,0 c -0.0313,0.09598 -0.0612,0.192243 -0.0989,0.284739 -0.0728,0.183545 -0.1618,0.356621 -0.25778,0.524449 h 10.25808 c -0.33197,-0.0232 -0.65417,-0.06321 -0.95599,-0.133381 a 0.75482177,0.75482177 0 0 1 -0.006,-0.0015 c -0.46968,-0.111894 -0.89856,-0.28587 -1.27512,-0.528916 a 0.75482177,0.75482177 0 0 1 -0.009,-0.0059 c -0.0647,-0.0432 -0.12497,-0.09134 -0.18586,-0.139181 z m 13.73287,0 c -0.0803,0.06003 -0.16034,0.121493 -0.24733,0.173685 -0.63472,0.380833 -1.41158,0.572234 -2.31352,0.635329 h 4.34236 c 0.11889,-0.230227 0.26648,-0.441955 0.42105,-0.647333 l 0.0748,-0.161797 z m 6.78479,0 -0.20094,0.437519 h 2.47535 a 0.75482177,0.75482177 0 0 1 0.63683,0.350618 c 0.006,0.0059 0.006,0.01449 0.0116,0.02029 h 3.41039 c -0.1821,-0.0059 -0.36303,-0.0116 -0.53344,-0.04059 a 0.75482177,0.75482177 0 0 1 -0.009,-0.0014 c -0.26126,-0.04611 -0.51633,-0.1502 -0.72972,-0.31017 -0.16209,-0.121782 -0.29025,-0.28358 -0.39707,-0.457005 z m 8.31764,0 a 0.75482177,0.75482177 0 0 1 -0.61735,0.681751 c -0.11772,0.02029 -0.27314,0.04291 -0.4615,0.06901 -0.20326,0.03885 -0.41209,0.0519 -0.62184,0.05857 h 18.86041 0.0464 v -0.809131 h -0.0464 z m -42.21757,0.229357 c -0.0409,0.195143 -0.0574,0.397244 -0.13048,0.579889 h 0.13048 z m -16.84802,2.992316 c 0.0313,0.03016 0.0647,0.05655 0.1035,0.09598 l 0.001,0.0015 c 0.37573,0.37944 0.21109,0.292075 0.94698,0.422557 0.0997,0.0174 0.19948,0.03596 0.28329,0.05249 0.0826,0.0174 0.0934,0.01159 0.2308,0.05249 l 0.003,0.0014 c 0.0262,0.0087 0.0459,0.01159 0.12295,0.04494 0.0203,0.0087 0.0452,0.0203 0.0823,0.04205 0.0174,0.01159 0.04,0.0261 0.0673,0.04639 0.0145,0.0116 0.0325,0.029 0.0554,0.04929 h 15.27324 c -0.0615,-0.08641 -0.12091,-0.174266 -0.16498,-0.268213 a 0.75482177,0.75482177 0 0 1 -0.0232,-0.05393 c -0.0597,-0.159188 -0.0902,-0.321391 -0.10931,-0.486989 z m 20.78286,0 v 0.650292 a 0.75482177,0.75482177 0 0 1 -0.0174,0.158897 h 55.46045 0.0464 v -0.80913 h -0.0464 -22.42664 c -0.0649,0.109024 -0.14296,0.212539 -0.2398,0.305675 -0.3071,0.302079 -0.7488,0.459991 -1.16424,0.459991 h -5.62051 a 0.75482177,0.75482177 0 0 1 -0.47951,-0.172236 c -0.19832,-0.163247 -0.35012,-0.371118 -0.47948,-0.593372 z"
       style="color:#000000;font-style:normal;font-variant:normal;font-weight:normal;font-stretch:normal;font-size:medium;line-height:normal;font-family:sans-serif;font-variant-ligatures:normal;font-variant-position:normal;font-variant-caps:normal;font-variant-numeric:normal;font-variant-alternates:normal;font-feature-settings:normal;text-indent:0;text-align:start;text-decoration:none;text-decoration-line:none;text-decoration-style:solid;text-decoration-color:#000000;letter-spacing:normal;word-spacing:normal;text-transform:none;writing-mode:lr-tb;direction:ltr;text-orientation:mixed;dominant-baseline:auto;baseline-shift:baseline;text-anchor:start;white-space:normal;shape-padding:0;clip-rule:nonzero;display:inline;overflow:visible;visibility:visible;opacity:1;isolation:auto;mix-blend-mode:normal;color-interpolation:sRGB;color-interpolation-filters:linearRGB;solid-color:#000000;solid-opacity:1;vector-effect:none;fill:#555555;fill-opacity:1;fill-rule:nonzero;stroke:none;stroke-width:0.20698602;stroke-linecap:butt;stroke-linejoin:miter;stroke-miterlimit:4;stroke-dasharray:none;stroke-dashoffset:0;stroke-opacity:1;color-rendering:auto;image-rendering:auto;shape-rendering:auto;text-rendering:auto;enable-background:accumulate"
       inkscape:connector-curvature="0" />
    <path
       style="fill:#333333;fill-opacity:1;stroke:none;stroke-width:0.19603142;stroke-miterlimit:4;stroke-dasharray:none;stroke-opacity:1"
       d="m 233.65283,-35.862872 c -0.20935,0 -0.42803,0.02029 -0.65629,0.05683 -0.22819,0.029 -0.39434,0.05162 -0.49896,0.07191 v 10.971299 c 0,0.247335 0.029,0.447145 0.0855,0.599373 0.0571,0.152228 0.14207,0.271112 0.25632,0.356622 0.11425,0.08554 0.25198,0.141789 0.41354,0.170784 0.17108,0.03682 0.36715,0.05538 0.58589,0.05538 0.21863,0 0.44152,-0.01159 0.66978,-0.04205 0.2282,-0.029 0.39434,-0.05509 0.49896,-0.0838 v -3.153971 l 2.01237,2.340519 c 0.2282,0.266184 0.46597,0.498469 0.71324,0.698251 0.24734,0.190213 0.56603,0.28474 0.956,0.28474 0.18064,0 0.35076,-0.029 0.51244,-0.0838 0.16151,-0.05712 0.3049,-0.143529 0.42854,-0.257774 0.13309,-0.114243 0.23863,-0.251683 0.31466,-0.413567 0.0763,-0.161797 0.11395,-0.346559 0.11395,-0.55591 -0.19021,-0.199782 -0.40504,-0.423949 -0.64281,-0.671284 -0.2282,-0.247335 -0.46596,-0.503978 -0.71324,-0.77016 -0.24734,-0.275751 -0.49841,-0.551387 -0.7552,-0.827137 -0.2569,-0.275751 -0.50394,-0.547443 -0.74171,-0.813625 l -1.70218,-1.799572 3.48528,-3.422357 c 0.27576,-0.275751 0.47574,-0.523086 0.59937,-0.741716 0.12352,-0.218629 0.18442,-0.450944 0.18442,-0.69825 0,-0.332873 -0.1418,-0.619323 -0.42706,-0.85709 -0.27574,-0.247335 -0.73779,-0.370106 -1.38452,-0.370106 l -2.96683,3.408845 v -2.26858 c 0,-0.247335 -0.029,-0.445609 -0.0855,-0.597867 -0.0571,-0.152228 -0.14352,-0.272561 -0.25777,-0.358099 -0.11425,-0.08554 -0.25575,-0.141789 -0.42705,-0.170785 -0.1618,-0.03682 -0.35216,-0.05683 -0.57091,-0.05683 z m -50.34038,3.841927 c -0.20935,0 -0.42656,0.0203 -0.65482,0.05683 -0.22819,0.029 -0.39585,0.05016 -0.50047,0.07046 v 10.476827 c 0,0.408987 0.11888,0.731712 0.35662,0.969479 0.23777,0.237765 0.562,0.35662 0.97098,0.35662 h 3.82242 c 0.26618,0 0.48113,-0.07539 0.64281,-0.227908 0.1618,-0.161797 0.2427,-0.433169 0.2427,-0.813625 0,-0.190213 -0.029,-0.371351 -0.0853,-0.542427 -0.0571,-0.180644 -0.11917,-0.322375 -0.18587,-0.427051 h -3.26801 v -8.735706 c 0,-0.247334 -0.029,-0.447116 -0.0855,-0.599345 -0.0571,-0.152228 -0.14207,-0.271111 -0.25632,-0.35662 -0.11424,-0.08554 -0.25748,-0.141789 -0.42853,-0.170786 -0.1618,-0.03682 -0.35216,-0.05683 -0.5709,-0.05683 z m -11.07024,0.313156 c -0.0403,0.0059 -0.19978,0.0403 -0.35212,0.06901 -0.21429,0.04001 -0.28822,0.04292 -0.32815,0.0232 -0.0438,-0.0232 -0.12497,0.0029 -0.53793,0.181224 -0.26763,0.115114 -0.63116,0.27952 -0.80913,0.367117 -0.33412,0.164407 -0.84778,0.489103 -0.95147,0.600853 -0.0713,0.07683 -0.0928,0.07713 -0.11396,0.0116 -0.0144,-0.04552 -0.0377,-0.029 -0.21572,0.142369 -0.10932,0.104675 -0.33409,0.317621 -0.50349,0.474982 -0.32661,0.303442 -0.5294,0.549588 -0.59485,0.719243 -0.0232,0.05683 -0.0553,0.101776 -0.0734,0.101776 -0.0365,-3e-5 -0.16325,0.252555 -0.32218,0.629326 -0.11076,0.262703 -0.21602,0.39707 -0.30715,0.39707 -0.0476,0 -0.0751,0.04291 -0.20384,0.33415 -0.29274,0.663135 -0.60491,1.594339 -0.5709,1.703682 0.0116,0.03537 0.0203,0.644057 0.0232,1.353065 10e-4,1.393195 0.0116,1.557863 0.14672,2.208647 0.30687,1.465655 1.07853,2.9042 2.1577,4.021731 0.921,0.953762 1.88789,1.573752 2.98481,1.913468 0.40949,0.126712 0.61292,0.163537 1.09233,0.187313 0.194,0.0087 0.40421,0.0174 0.46452,0.0174 0.10264,0.0015 0.10903,-0.0023 0.0406,-0.0232 -0.04,-0.01159 -0.23371,-0.05016 -0.42554,-0.0838 -0.76767,-0.13599 -0.93605,-0.21457 -1.35307,-0.635329 -0.16702,-0.169336 -0.22674,-0.2137 -0.19775,-0.157449 0.0231,0.04929 0.029,0.078 0.0116,0.078 -0.0592,0 -0.28618,-0.113375 -0.44653,-0.220369 -0.0937,-0.06263 -0.2195,-0.128742 -0.28329,-0.152808 -0.0635,-0.0232 -0.12004,-0.0548 -0.11975,-0.06292 8e-5,-0.0087 0.0261,-0.04494 0.0568,-0.0838 l 0.0569,-0.06901 -0.13629,-0.07336 c -0.13077,-0.06524 -0.46451,-0.372654 -0.46451,-0.430034 0,-0.01159 -0.0545,-0.0261 -0.12439,-0.029 -0.12555,-0.0059 -0.13135,-0.01449 -0.24879,-0.169336 -0.12845,-0.170787 -0.25342,-0.420557 -0.25487,-0.498962 -7.4e-4,-0.04814 -0.006,-0.04668 -0.0406,0 -0.042,0.05538 -0.0261,0.07016 -0.25458,-0.242696 -0.36307,-0.494728 -0.47652,-0.698308 -0.41357,-0.737219 0.0174,-0.0116 -0.001,-0.04291 -0.051,-0.08989 -0.0412,-0.03944 -0.0969,-0.108153 -0.12439,-0.152808 -0.0502,-0.08119 -0.0484,-0.08206 0,-0.130481 0.0484,-0.04842 0.0464,-0.04785 -0.0629,-0.20993 -0.1186,-0.175715 -0.25546,-0.461441 -0.28155,-0.578382 l -0.0174,-0.06756 0.096,0.08525 c 0.0511,0.04872 0.11279,0.103226 0.14238,0.118304 0.0533,0.0261 0.0545,0.0232 0.0174,-0.06901 -0.17195,-0.412264 -0.31919,-0.597257 -0.49745,-0.623354 -0.1934,-0.029 -0.27459,-0.130482 -0.41957,-0.515431 -0.0722,-0.190793 -0.0731,-0.203842 -0.0232,-0.203842 0.0203,0 0.0336,-0.0059 0.029,-0.0174 -0.14325,-0.281841 -0.1473,-0.299731 -0.13048,-0.504964 0.0144,-0.184704 0.006,-0.207901 -0.0511,-0.311677 -0.0345,-0.06147 -0.0748,-0.189633 -0.096,-0.287639 -0.0548,-0.251975 -0.0513,-0.91227 0.0116,-1.495406 0.0261,-0.254294 0.0585,-0.587892 0.0734,-0.741715 0.0145,-0.153968 0.0479,-0.336178 0.069,-0.403072 0.0203,-0.06698 0.14557,-0.329829 0.2772,-0.588877 0.13194,-0.258934 0.23834,-0.479622 0.23834,-0.491452 0,-0.01159 -0.0203,-0.0232 -0.0464,-0.0232 -0.1157,0 -0.0719,-0.08554 0.25024,-0.486986 0.22848,-0.28474 0.83438,-0.869848 1.07586,-1.041388 0.25429,-0.180644 0.48389,-0.295207 0.59935,-0.295207 0.0571,0 0.1009,-0.0232 0.14236,-0.06756 0.0519,-0.05712 0.0537,-0.06205 0.0116,-0.04494 -0.0899,0.03537 -0.15744,0.04262 -0.15744,0.0174 0,-0.03857 0.29025,-0.278942 0.44654,-0.373091 0.1499,-0.09018 0.25574,-0.122362 0.57838,-0.164696 0.13106,-0.0174 0.22703,-0.04408 0.26531,-0.07336 0.0601,-0.04611 0.0597,-0.04726 -0.0734,-0.01159 -0.16993,0.04494 -0.20153,0.04611 -0.19196,0 0.006,-0.0232 0.0884,-0.0664 0.20384,-0.106415 0.107,-0.03711 0.30237,-0.127292 0.43604,-0.203842 0.13367,-0.07655 0.31458,-0.160057 0.40156,-0.187313 0.2053,-0.06408 0.56679,-0.113663 0.57839,-0.07945 0.006,0.0174 0.0786,0.01159 0.22037,-0.01159 0.30138,-0.049 1.0446,-0.0261 1.404,0.04031 0.80481,0.151358 1.35142,0.4196 1.92095,0.951501 0.52541,0.490668 0.99117,1.205445 1.20023,1.834047 0.0841,0.252555 0.15281,0.552228 0.15281,0.686247 0,0.05103 0.0145,0.122363 0.0345,0.152808 0.0348,0.049 0.0386,0.138601 0.0261,0.752212 -0.006,0.383789 -0.0174,0.730059 -0.0261,0.770189 -0.0174,0.06988 -0.0203,0.07133 0.0174,0.0232 0.0373,-0.04726 0.0382,-0.04929 0.0388,0.0232 7.4e-4,0.154839 -0.0548,0.397621 -0.15282,0.662295 -0.10177,0.274592 -0.0995,0.274302 -0.21427,0.328176 -0.0948,0.04437 -0.12005,0.07308 -0.15281,0.158898 -0.0232,0.06263 -0.031,0.130771 -0.0232,0.169336 0.0327,0.130771 -0.0261,0.21457 -0.32365,0.47649 -0.52921,0.467964 -0.76236,0.635531 -0.81514,0.582875 -0.0203,-0.02029 -0.0115,-0.04523 0.0232,-0.08554 0.0262,-0.03044 -0.0115,-0.0029 -0.0795,0.05683 -0.067,0.0606 -0.15628,0.139179 -0.20384,0.175425 -0.10003,0.07568 -0.4011,0.194273 -0.45851,0.181224 -0.0203,-0.0059 -0.091,0.01159 -0.15281,0.03451 -0.6005,0.228198 -1.36567,0.121783 -2.01086,-0.2772 -0.24328,-0.150489 -0.67721,-0.563709 -0.82711,-0.788167 -0.24066,-0.359955 -0.39811,-0.766216 -0.44653,-1.159777 -0.0203,-0.173686 -0.0368,-0.225299 -0.0629,-0.215731 -0.0261,0.0087 -0.029,-0.03537 -0.029,-0.20993 0,-0.754502 0.38657,-1.481023 1.00841,-1.89697 0.61582,-0.411886 1.41489,-0.481012 2.08428,-0.220368 -0.45482,-0.278941 -0.91026,-0.515808 -1.42795,-0.425544 -0.55,0.09598 -1.10593,0.449582 -1.34109,0.855582 -0.0359,0.06234 -0.11425,0.158897 -0.17079,0.21428 -0.12091,0.118882 -0.19659,0.257193 -0.34011,0.635329 -0.058,0.153098 -0.12353,0.30234 -0.14673,0.328147 -0.0626,0.06988 -0.0777,0.865122 -0.0232,1.183757 0.127,0.72858 0.5032,1.273325 1.33056,1.937419 0.16267,0.130771 0.29987,0.253134 0.30568,0.271112 0.0144,0.04088 0.37891,0.158897 0.71474,0.232257 0.34163,0.07423 1.18626,0.07974 1.50591,0.01159 0.33521,-0.0722 0.58041,-0.158318 0.88855,-0.310169 0.37689,-0.185863 0.6734,-0.399099 1.06537,-0.770161 0.17397,-0.164406 0.32255,-0.295206 0.33414,-0.295206 0.0116,0 0.0145,0.0087 0.0174,0.0174 0,-0.0015 4.6e-4,-0.0029 0,-0.0059 0.003,-0.0261 0.009,-0.04523 0.0115,-0.07481 0.003,-0.119463 0.0203,-0.170786 0.0899,-0.287639 0.0468,-0.07887 0.0934,-0.148169 0.10787,-0.152809 0.0145,-0.0059 0.0519,0.03044 0.0855,0.07945 l 0.0615,0.08989 0.0174,-0.113953 c 0.009,-0.06292 0.0887,-0.262993 0.17543,-0.446537 0.18615,-0.394779 0.23835,-0.552632 0.23835,-0.741714 0,-0.111056 0.009,-0.1444 0.045,-0.170787 0.035,-0.0232 0.0511,-0.06582 0.0568,-0.163247 l 0.006,-0.135991 0.0511,0.107865 0.0511,0.107865 0.029,-0.170786 c 0.0144,-0.09395 0.0667,-0.277491 0.11396,-0.407566 0.0748,-0.207031 0.0823,-0.236027 0.045,-0.232258 -0.0232,0.0023 -0.0588,0.0015 -0.0734,0 -0.0818,-0.0087 -0.12091,-0.470312 -0.045,-0.525956 0.0262,-0.0203 0.029,-0.03567 0.0115,-0.04639 -0.051,-0.0316 -0.15629,-0.28155 -0.20383,-0.480984 -0.0261,-0.108734 0.0459,-0.08119 0.11975,0.04494 0.0357,0.0609 0.0676,0.106415 0.0734,0.101775 0.006,-0.0059 -0.0174,-0.119173 -0.0511,-0.259223 -0.0336,-0.14005 -0.0565,-0.28648 -0.0569,-0.323652 -2.9e-4,-0.03741 -0.0232,-0.115404 -0.051,-0.169336 -0.0412,-0.08032 -0.0565,-0.09279 -0.0855,-0.06901 -0.0203,0.01449 -0.0531,0.0261 -0.0734,0.0174 -0.0459,-0.0174 -0.11047,-0.258353 -0.10178,-0.362623 0.006,-0.07597 0.0116,-0.07973 0.1244,-0.09134 0.0887,-0.0087 0.12468,-0.0261 0.13627,-0.06147 0.0145,-0.04234 0.0232,-0.03508 0.0673,0.02987 0.0742,0.104965 0.21949,0.40426 0.31167,0.639823 0.0942,0.240377 0.11164,0.233418 0.029,-0.01159 -0.0588,-0.172525 -0.11366,-0.668268 -0.0734,-0.668268 0.0116,0 0.0365,0.01159 0.0511,0.029 0.0432,0.0432 0.0373,0.0174 -0.045,-0.191664 -0.22646,-0.573292 -0.63257,-1.154195 -1.1672,-1.670729 -0.26241,-0.253424 -0.66815,-0.571857 -0.87809,-0.69074 l -0.10786,-0.06292 0.069,0.07945 c 0.13135,0.155998 0.0768,0.158897 -0.14672,0.0059 -0.1589,-0.108445 -0.23748,-0.184994 -0.26067,-0.260673 -0.029,-0.09569 -0.24907,-0.141501 -0.44201,-0.09134 -0.19051,0.04959 -0.26125,0.04031 -0.43005,-0.04494 -0.28067,-0.141789 -0.52517,-0.234866 -0.92302,-0.35662 -0.21776,-0.0667 -0.41592,-0.131062 -0.44201,-0.140921 -0.0409,-0.01449 -0.0429,-0.0087 -0.029,0.05103 0.0174,0.06437 0.0144,0.06582 -0.0511,0.05103 -0.18267,-0.04147 -0.34949,-0.03885 -0.56638,0 -0.35293,0.06321 -0.63605,0.029 -0.40756,-0.05103 0.0708,-0.0232 0.0548,-0.02957 -0.18122,-0.0464 -0.14441,-0.0087 -0.3218,-0.01449 -0.3911,-0.0059 -0.14846,0.0203 -0.14672,0.01449 0.0568,-0.09743 0.1151,-0.0635 0.13976,-0.08264 0.0855,-0.07336 z m 0.75822,0.09134 c -0.0524,0.0015 -0.0528,0.0029 -0.006,0.0232 0.0673,0.029 0.0908,0.029 0.0734,0 -0.009,-0.01449 -0.038,-0.0232 -0.0673,-0.0232 z m 56.03132,0.665311 c -0.39611,0 -0.71674,0.123522 -0.96196,0.368596 -0.23574,0.245305 -0.35364,0.54663 -0.35364,0.905048 0,0.35839 0.11773,0.659802 0.35364,0.905021 0.24531,0.245305 0.56585,0.368624 0.96196,0.368624 0.39615,0 0.71273,-0.123522 0.9485,-0.368624 0.2453,-0.245306 0.36711,-0.546631 0.36711,-0.905021 0,-0.358418 -0.12179,-0.659801 -0.36711,-0.905048 -0.23574,-0.245306 -0.55235,-0.368596 -0.9485,-0.368596 z m -22.74576,0.206741 c -0.27575,0 -0.5513,0.0232 -0.82714,0.0719 -0.27575,0.03799 -0.54185,0.09453 -0.79863,0.170786 -0.25691,0.07626 -0.49998,0.166726 -0.72823,0.271111 -0.21864,0.09511 -0.40375,0.204421 -0.55592,0.328147 -0.15223,0.123812 -0.27111,0.265312 -0.35662,0.427051 -0.0763,0.152229 -0.11395,0.338614 -0.11395,0.557388 v 4.279448 c 0,0.237766 0.029,0.43227 0.0855,0.584383 0.0667,0.14266 0.15716,0.257483 0.27112,0.343137 0.11424,0.08554 0.25197,0.14208 0.41356,0.170786 0.17108,0.029 0.36167,0.04349 0.5709,0.04349 0.21864,0 0.4281,-0.01449 0.62782,-0.04349 0.20935,-0.029 0.36042,-0.05712 0.45553,-0.08554 v -4.863801 c 0.12352,-0.05712 0.27082,-0.105835 0.44201,-0.143819 0.18065,-0.04755 0.37118,-0.08931 0.5709,-0.127292 0.19978,-0.0377 0.40511,-0.06582 0.61434,-0.08525 0.20935,-0.02029 0.41313,-0.02987 0.61286,-0.02987 0.0571,-0.104675 0.10438,-0.218049 0.14236,-0.34163 0.038,-0.13309 0.0569,-0.266762 0.0569,-0.400056 0,-0.39939 -0.13223,-0.684361 -0.39858,-0.855611 -0.26618,-0.180644 -0.62831,-0.271112 -1.08482,-0.271112 z m -10.75255,0.184413 c -0.21864,0 -0.43211,0.02029 -0.64134,0.05683 -0.20935,0.029 -0.3619,0.05655 -0.45701,0.08554 v 9.735141 c 0,0.466051 0.20936,0.845462 0.62783,1.140264 0.30437,0.218629 0.67432,0.399766 1.11182,0.542426 0.43752,0.152229 0.97109,0.227618 1.5988,0.227618 0.58018,0 1.10828,-0.07539 1.58381,-0.227618 0.48504,-0.161797 0.89281,-0.393909 1.22569,-0.69825 0.3329,-0.304341 0.59099,-0.685289 0.7717,-1.141771 0.19021,-0.466052 0.28473,-1.009087 0.28473,-1.62728 0,-0.5992 -0.0905,-1.125765 -0.27111,-1.582306 -0.18064,-0.45654 -0.42786,-0.83746 -0.74171,-1.141801 -0.31388,-0.313851 -0.67586,-0.551444 -1.08486,-0.713241 -0.40896,-0.161507 -0.84108,-0.242695 -1.29762,-0.242695 -0.2569,0 -0.49447,0.0203 -0.71324,0.05683 -0.20935,0.03799 -0.43351,0.105545 -0.67128,0.200941 v -3.53025 c 0,-0.237767 -0.029,-0.428241 -0.0855,-0.5709 -0.0571,-0.152229 -0.14209,-0.271113 -0.25633,-0.356621 -0.11424,-0.08554 -0.25748,-0.14179 -0.42852,-0.170786 -0.1618,-0.029 -0.34668,-0.04205 -0.55591,-0.04205 z m 23.68077,1.014422 c -0.26618,0 -0.4851,0.0809 -0.65629,0.242696 -0.16181,0.161797 -0.2427,0.427719 -0.2427,0.798633 0,0.199783 0.029,0.390256 0.0853,0.570901 0.0571,0.180644 0.11917,0.323856 0.18586,0.428531 h 3.50926 l -3.32945,7.153403 c -0.17108,0.209352 -0.31841,0.437433 -0.44204,0.684768 -0.12353,0.247335 -0.18587,0.490465 -0.18587,0.728232 0,0.29486 0.0528,0.555445 0.15745,0.783643 0.10468,0.228197 0.23835,0.409336 0.40009,0.542426 h 5.6205 c 0.26618,0 0.47965,-0.0809 0.64133,-0.242695 0.17108,-0.161797 0.25778,-0.427748 0.25778,-0.798663 0,-0.199782 -0.029,-0.390227 -0.0856,-0.5709 -0.0571,-0.180645 -0.11917,-0.322348 -0.18586,-0.427023 h -3.6531 l 3.28749,-7.154883 c 0.17108,-0.209351 0.30896,-0.428125 0.41357,-0.656323 0.11425,-0.237766 0.17079,-0.475475 0.17079,-0.713241 0,-0.570639 -0.20935,-1.027121 -0.62785,-1.369534 z m -52.45465,1.089348 c -0.0455,7.4e-4 -0.0731,0.04378 -0.10787,0.163246 -0.0429,0.147879 -0.0145,0.158897 0.0734,0.02987 0.0525,-0.07742 0.0725,-0.192533 0.0345,-0.191663 z m 62.14485,0.660786 c -0.20761,0 -0.41435,0.0203 -0.62185,0.05683 -0.19805,0.029 -0.34876,0.05162 -0.45251,0.07046 v 5.758383 c 0,0.235736 0.0261,0.428994 0.0838,0.579886 0.0662,0.1415 0.15658,0.253714 0.26966,0.338646 0.11309,0.08496 0.24879,0.14237 0.40905,0.170786 0.16962,0.029 0.35891,0.04205 0.5664,0.04205 0.20762,0 0.4103,-0.0203 0.60837,-0.05683 0.20761,-0.029 0.36375,-0.05161 0.46746,-0.07046 v -5.758382 c 0,-0.235737 -0.0327,-0.423427 -0.0989,-0.564898 -0.0565,-0.150778 -0.1415,-0.270242 -0.25487,-0.355113 -0.11309,-0.08496 -0.25575,-0.14092 -0.42555,-0.169336 -0.16035,-0.029 -0.34391,-0.04205 -0.55141,-0.04205 z m -62.56889,0.576903 c -0.003,-0.01449 -0.0203,0.0029 -0.0464,0.05249 -0.0261,0.04668 -0.0443,0.128452 -0.045,0.181225 -0.001,0.127002 0.033,0.08525 0.0673,-0.07945 0.0174,-0.08931 0.029,-0.13889 0.0231,-0.154258 z m 24.40153,0.116853 c -0.39948,0 -0.72371,0.122943 -0.97099,0.370103 -0.23776,0.247336 -0.35662,0.552634 -0.35662,0.914039 0,0.361405 0.11888,0.665253 0.35662,0.91253 0.24734,0.247335 0.57151,0.371611 0.97099,0.371611 0.39945,0 0.71819,-0.124392 0.95597,-0.371611 0.24733,-0.247335 0.37009,-0.551125 0.37009,-0.91253 0,-0.361405 -0.12294,-0.666761 -0.37009,-0.914039 -0.23778,-0.247334 -0.55652,-0.370103 -0.95597,-0.370103 z m -16.19627,0.0261 c -0.0145,-0.0059 -0.0305,0.01159 -0.045,0.0059 0.0418,0.0261 0.089,0.0116 0.13048,0.03885 -0.0313,-0.01449 -0.0579,-0.03364 -0.0852,-0.04494 z m 0.0852,0.04494 c 0.0829,0.03973 0.17398,0.08409 0.22617,0.118304 0.0719,0.04726 0.13511,0.08003 0.14091,0.0751 0.006,-0.0059 -0.0479,-0.05973 -0.1183,-0.119754 -0.078,-0.0664 -0.16991,-0.0174 -0.24878,-0.07336 z m 0.96796,1.483433 c -0.009,-0.0232 -0.0231,-0.01449 -0.0511,0.0232 -0.0357,0.049 -0.0232,0.119463 0.0232,0.227617 0.0203,0.04378 0.0261,0.06118 0.0345,-0.07945 0.003,-0.09279 0.002,-0.14817 -0.006,-0.170787 z m -0.029,0.251684 c -0.002,-5.7e-5 -0.002,0.0174 -0.006,0.0116 h 0.006 c -0.002,-0.0059 6.3e-4,-0.0059 0,-0.0116 z m 22.60494,0.923082 c 0.50685,0 0.90968,0.155708 1.20921,0.471998 0.29944,0.316114 0.44949,0.797416 0.44949,1.439965 0,0.632372 -0.14991,1.110689 -0.44949,1.43695 -0.28792,0.316114 -0.69579,0.475012 -1.22571,0.475012 -0.26502,0 -0.49145,-0.0232 -0.67577,-0.06147 -0.17283,-0.05103 -0.31984,-0.109895 -0.44651,-0.181225 v -3.336961 c 0.196,-0.08148 0.37213,-0.14585 0.5334,-0.184415 0.17282,-0.03944 0.37498,-0.06002 0.60538,-0.06002 z m -23.03498,-0.04639 c -0.0174,0 -0.1589,0.230227 -0.1589,0.256323 0,0.0232 0.0319,-0.02029 0.1183,-0.164697 0.0319,-0.05016 0.0464,-0.09134 0.0403,-0.09134 z m 0.11396,0.238346 -0.0913,0.06292 c -0.0516,0.03508 -0.11019,0.06118 -0.13048,0.06147 -0.0232,1.74e-4 -0.0116,0.01449 0.0232,0.03451 0.0699,0.03682 0.0893,0.029 0.1528,-0.07945 z m 15.35863,0.260673 c -0.20935,0 -0.41859,0.02029 -0.62782,0.05683 -0.19978,0.029 -0.35091,0.05249 -0.45553,0.0719 v 5.806312 c 0,0.237766 0.029,0.432242 0.0852,0.584383 0.0667,0.142661 0.15716,0.257485 0.27111,0.343138 0.11425,0.08554 0.25198,0.14208 0.41357,0.170787 0.17107,0.029 0.36015,0.04204 0.56939,0.04204 0.20935,0 0.41461,-0.0174 0.61433,-0.05683 0.20935,-0.029 0.36591,-0.05103 0.47053,-0.07046 v -5.806313 c 0,-0.237767 -0.0339,-0.42824 -0.10033,-0.5709 -0.0571,-0.152229 -0.14208,-0.270822 -0.25633,-0.356621 -0.11424,-0.08554 -0.25748,-0.14208 -0.42855,-0.170786 -0.1618,-0.029 -0.34665,-0.04349 -0.55591,-0.04349 z m -16.28314,0.311677 -0.15282,0.02319 c -0.0861,0.01159 -0.23718,0.01449 -0.33415,0.0059 -0.11452,-0.0087 -0.17542,-0.0059 -0.17542,0.01159 0,0.03653 0.0261,0.04611 0.22183,0.09743 0.0974,0.0261 0.18933,0.05046 0.20384,0.05103 0.0144,3.18e-4 0.0713,-0.04611 0.13048,-0.09743 z m -3.09723,0.271111 c -0.0145,-0.0087 -0.002,0.0261 0.029,0.07945 0.031,0.05422 0.0617,0.09598 0.0676,0.09134 0.0116,-0.01159 -0.0658,-0.152228 -0.096,-0.170785 z m -0.31765,0.158898 c -0.0116,-5.22e-4 -0.0232,0.029 -0.0232,0.06756 0,0.04814 0.0565,0.14672 0.17543,0.311649 0.0951,0.131931 0.19282,0.265022 0.22182,0.295207 0.0742,0.08119 0.0759,0.07075 0.006,-0.04494 -0.0345,-0.05683 -0.12671,-0.225298 -0.20992,-0.368595 -0.0835,-0.143241 -0.16093,-0.260093 -0.17078,-0.260673 z m 6.29628,0.0087 c -0.003,0.0087 -0.006,0.0174 -0.0144,0.0232 -0.0145,0.0087 -0.0232,0.04929 -0.0232,0.08525 v 0.06147 l 0.0232,-0.06147 c 0.009,-0.0174 0.009,-0.06959 0.0144,-0.109314 z m -5.91119,0.263573 c -0.0644,-0.0261 0.21573,0.318694 0.40907,0.503456 0.0562,0.05393 0.15282,0.05132 0.21428,0.101776 -0.10612,-0.09018 -0.19369,-0.152229 -0.37912,-0.356621 -0.12149,-0.13367 -0.23254,-0.243565 -0.24414,-0.248785 z m 0.62333,0.605348 c 0.0513,0.04378 0.14845,0.158317 0.18123,0.175425 0.0968,0.05016 0.0994,0.03364 0.006,-0.04494 -0.0174,-0.01449 -0.0325,-0.0377 -0.0568,-0.06293 -0.0397,-0.03015 -0.0925,-0.03596 -0.13048,-0.06756 z m 0.13048,0.06756 c 0.12178,0.0925 0.27314,0.114243 0.40757,0.193403 -0.17543,-0.104676 -0.35398,-0.216021 -0.47498,-0.323653 -0.0667,-0.05944 -0.13049,-0.106415 -0.13629,-0.106415 -0.0174,0 0.1125,0.14237 0.20384,0.236607 z m 0.40757,0.193403 v 0.0015 c 0.001,0.0015 0.003,0.0015 0.006,0.0029 -0.002,-0.0015 -0.003,-0.0029 -0.006,-0.0059 z m 0.006,0.0059 c 0.0232,0.01449 0.0391,0.03305 0.0629,0.0464 0.0482,0.0261 0.0345,0.0023 0.0553,0.01159 -0.0403,-0.0232 -0.0788,-0.03625 -0.11829,-0.05857 z m 0.1183,0.05857 c 0.001,6.09e-4 0.002,7.41e-4 0.006,0.0015 -0.001,-7.41e-4 -0.003,-0.0023 -0.006,-0.0029 z m 0.006,0.0015 c 0.14527,0.07887 0.28503,0.167887 0.42554,0.253134 -0.0934,-0.05306 -0.17687,-0.114824 -0.25313,-0.187313 -0.071,-0.06844 -0.0913,-0.07945 -0.0913,-0.04494 0,0.0232 -0.0487,-0.0087 -0.0809,-0.0203 z m 0.44351,0.265313 c 0.23604,0.14266 0.47304,0.270821 0.72523,0.305671 0.20586,0.029 0.56107,0.01159 0.72373,-0.03451 0.11947,-0.03305 0.11454,-0.03074 -0.22036,-0.03305 -0.54898,-0.0029 -0.93564,-0.07713 -1.22867,-0.238347 z"
       id="path6379"
       inkscape:connector-curvature="0"
       sodipodi:nodetypes="sccscccscccccscccccccccccscccscccssccsssscscccscccsccccccccccccsccccccccccccsccccccscccccccccccccccccsccccccccssccsccscccccccccccccsccccccccccccccccccccsccccccccccccccscccccccccscccccccccccccccccccccccccscccccccccccccccccccccccccscccscscsscccccsscccsccccccccscsscccccscccscccsccscccsscscccccsccscscccccscscccccsccccccsccscccsccccsscscscscsccccccccccccccccsccscscsccccsccccssccccscsscccsccscccscccscccccccccsccccccccccccccccccccccccsccccccccccccccccccccccccccccscccccccc" />
    <rect
       style="opacity:1;fill:#555555;fill-opacity:1;stroke:none;stroke-width:0.14818123;stroke-linecap:round;stroke-linejoin:bevel;stroke-miterlimit:4;stroke-dasharray:none;stroke-dashoffset:0;stroke-opacity:1"
       id="rect6381"
       width="2.4944735"
       height="12.850318"
       x="157.27798"
       y="-30.31349" />
    <g
       transform="matrix(2.8995901,0,0,2.8995901,119.02939,-707.64714)"
       aria-label="LibraZiK"
       style="font-style:normal;font-variant:normal;font-weight:normal;font-stretch:normal;font-size:3.17499995px;line-height:1.39999998;font-family:'Baloo Bhaina';-inkscape-font-specification:'Baloo Bhaina';text-align:justify;text-decoration:none;text-decoration-line:none;text-decoration-color:#000000;text-anchor:start;opacity:1;fill:#333333;fill-opacity:1;stroke:none;stroke-width:0.1352132;stroke-linecap:round;stroke-linejoin:bevel;stroke-miterlimit:4;stroke-dasharray:none;stroke-dashoffset:0;stroke-opacity:1"
       id="g6385">
      <path
         d="m 32.271614,236.28676 q 0.0843,0 0.183435,-0.0156 0.104114,-0.0198 0.153682,-0.0497 v -0.39664 l -0.356956,0.0296 q -0.138816,0.0102 -0.228056,0.0596 -0.08924,0.0495 -0.08924,0.14865 0,0.0991 0.07435,0.1636 0.07932,0.0595 0.26276,0.0595 z m -0.03967,-1.94838 q 0.267718,0 0.485857,0.0545 0.223098,0.0545 0.376787,0.16856 0.158647,0.10911 0.242929,0.2826 0.0843,0.16856 0.0843,0.40157 v 1.11053 q 0,0.12883 -0.07437,0.21319 -0.06941,0.0793 -0.168563,0.13881 -0.322252,0.19334 -0.907263,0.19334 -0.262759,0 -0.475941,-0.0497 -0.208226,-0.0495 -0.361914,-0.14865 -0.148732,-0.0991 -0.233013,-0.25284 -0.07932,-0.15364 -0.07932,-0.35696 0,-0.34208 0.203267,-0.52551 0.203267,-0.18346 0.629631,-0.22806 l 0.649462,-0.0695 v -0.0348 q 0,-0.1438 -0.128901,-0.20325 -0.123935,-0.0645 -0.361914,-0.0645 -0.188392,0 -0.366871,0.0396 -0.178478,0.0397 -0.322252,0.0991 -0.06444,-0.0447 -0.109073,-0.13382 -0.04461,-0.0941 -0.04461,-0.19336 0,-0.12883 0.05949,-0.20325 0.06444,-0.0793 0.193351,-0.13383 0.143782,-0.0545 0.337125,-0.0793 0.19831,-0.0248 0.37183,-0.0248 z"
         style="fill:#333333;fill-opacity:1;stroke-width:0.13521318"
         id="path6383"
         inkscape:connector-curvature="0" />
    </g>
    <text
       id="text2884"
       y="-24.048389"
       x="242.50467"
       style="font-style:normal;font-variant:normal;font-weight:bold;font-stretch:normal;font-size:23.16524696px;line-height:1.39999998;font-family:'Baloo Bhaina';-inkscape-font-specification:'Baloo Bhaina Bold';text-align:justify;text-decoration:none;text-decoration-line:none;text-decoration-color:#000000;text-anchor:start;opacity:1;fill:#333333;fill-opacity:1;stroke:none;stroke-width:0.39206311;stroke-linecap:round;stroke-linejoin:bevel;stroke-miterlimit:4;stroke-dasharray:none;stroke-dashoffset:0;stroke-opacity:1"
       xml:space="preserve"><tspan
         style="font-style:normal;font-variant:normal;font-weight:bold;font-stretch:normal;font-family:'Baloo Bhaina';-inkscape-font-specification:'Baloo Bhaina Bold';fill:#333333;fill-opacity:1;stroke-width:0.39206311"
         y="-24.048389"
         x="242.50467"
         id="tspan2882"
         sodipodi:role="line">3</tspan></text>
  </g>
  <g
     style="display:inline"
     transform="translate(-146.25339,-148.55098)"
     inkscape:label="Calque 2"
     id="layer2"
     inkscape:groupmode="layer" />
</svg>
