<?xml version="1.0" encoding="UTF-8" standalone="no"?>
<svg
   xmlns:dc="http://purl.org/dc/elements/1.1/"
   xmlns:cc="http://creativecommons.org/ns#"
   xmlns:rdf="http://www.w3.org/1999/02/22-rdf-syntax-ns#"
   xmlns:svg="http://www.w3.org/2000/svg"
   xmlns="http://www.w3.org/2000/svg"
   xmlns:sodipodi="http://sodipodi.sourceforge.net/DTD/sodipodi-0.dtd"
   xmlns:inkscape="http://www.inkscape.org/namespaces/inkscape"
   inkscape:export-ydpi="96"
   inkscape:export-xdpi="96"
   inkscape:export-filename="/home/elisa/Pro/Activstudio/LibraZIK/fond-ecran-1755x1167-couleur-JardinModerne.png"
   sodipodi:docname="logo-LZK3.svg"
   inkscape:version="0.92.4 (5da689c313, 2019-01-14)"
   id="svg1564"
   version="1.1"
   viewBox="0 0 99.62755 24.991036"
   height="94.454308"
   width="376.5451">
  <defs
     id="defs1558">
    <clipPath
       id="clipPath18"
       clipPathUnits="userSpaceOnUse">
      <path
         inkscape:connector-curvature="0"
         id="path16"
         d="M 0,595.28 H 841.89 V 0 H 0 Z" />
    </clipPath>
  </defs>
  <sodipodi:namedview
     inkscape:document-rotation="0"
     units="px"
     fit-margin-bottom="0"
     fit-margin-right="0"
     fit-margin-left="0"
     fit-margin-top="0"
     inkscape:window-maximized="1"
     inkscape:window-y="0"
     inkscape:window-x="44"
     inkscape:window-height="1017"
     inkscape:window-width="1628"
     showgrid="false"
     inkscape:current-layer="layer1"
     inkscape:document-units="mm"
     inkscape:cy="174.05655"
     inkscape:cx="42.444902"
     inkscape:zoom="0.93852459"
     inkscape:pageshadow="2"
     inkscape:pageopacity="0"
     borderopacity="1.0"
     bordercolor="#666666"
     pagecolor="#6c6c6c"
     id="base" />
  <metadata
     id="metadata1561">
    <rdf:RDF>
      <cc:Work
         rdf:about="">
        <dc:format>image/svg+xml</dc:format>
        <dc:type
           rdf:resource="http://purl.org/dc/dcmitype/StillImage" />
        <dc:title></dc:title>
      </cc:Work>
    </rdf:RDF>
  </metadata>
  <g
     transform="translate(-157.15179,41.241344)"
     id="layer1"
     inkscape:groupmode="layer"
     inkscape:label="Calque 1">
    <path
       id="path6377"
       d="m 157.15179,-30.535021 v 13.68792 h 0.22182 v 0.03306 h 11.97227 c -0.33108,-0.239795 -0.65273,-0.507953 -0.96348,-0.809135 h -10.49333 v -2.412428 h 8.69074 c -0.136,-0.264154 -0.2569,-0.534627 -0.36561,-0.809131 h -8.32513 v -2.412459 h 7.76322 c -0.0116,-0.193403 -0.0145,-0.519143 -0.0174,-0.80913 h -7.74674 v -2.410922 h 7.75125 c -0.003,-0.0059 -0.0116,-0.0116 -0.0146,-0.01449 -0.0608,-0.09047 -0.082,-0.153677 -0.0974,-0.202389 -0.0612,-0.194562 -0.0412,-0.232837 -0.0406,-0.298194 0.002,-0.122364 0.0116,-0.20645 0.0345,-0.293701 h -7.63439 v -2.412429 h 9.47143 c 0.14584,-0.242115 0.30477,-0.460426 0.55591,-0.693756 0.0407,-0.03769 0.0763,-0.07306 0.12148,-0.115404 h -10.14871 v -0.02611 z m 20.66901,0.02609 c 0.26328,0.255454 0.49589,0.527203 0.70274,0.809131 h 2.87842 v -0.809131 z m 7.58791,0 v 0.809131 h 8.27118 v -0.719216 a 0.75482176,0.75482176 0 0 1 0.006,-0.08988 z m 11.93629,0 c 0.0475,0.0809 0.0997,0.160926 0.13194,0.245886 0.073,0.185573 0.10351,0.372509 0.11976,0.563389 h 4.70948 c 0.0145,-0.0374 0.0203,-0.07713 0.0388,-0.113953 a 0.75482176,0.75482176 0 0 1 0.009,-0.01741 c 0.13541,-0.255743 0.32501,-0.478924 0.54691,-0.659308 0.009,-0.0059 0.0203,-0.0116 0.0289,-0.0203 z m 10.95634,0 c 0.13135,0.251394 0.20239,0.531176 0.21429,0.809131 h 9.40247 c 0.0357,-0.04582 0.0634,-0.0951 0.10641,-0.137731 a 0.75482176,0.75482176 0 0 1 0.0145,-0.01449 c 0.31319,-0.295932 0.75549,-0.449522 1.17474,-0.449522 h 5.32086 a 0.75482176,0.75482176 0 0 1 0.47797,0.170785 c 0.15455,0.126422 0.28735,0.273142 0.40458,0.431517 h 1.54484 c 0.003,-0.27807 0.0666,-0.553416 0.17689,-0.809131 z m 22.61839,0 c 0.11367,0.255163 0.17834,0.531002 0.18123,0.809131 h 0.64134 v -0.809131 z m 6.45366,0 -0.81216,0.797155 0.0115,0.0116 h 11.57369 0.0464 v -0.80913 h -0.0464 z m -65.54023,0.795647 c 0.003,0.0029 0.006,0.0087 0.0116,0.0116 7.2e-4,9.63e-4 0.002,5.8e-4 0.003,0.0014 h 0.006 c -0.006,-0.0059 -0.0115,-0.0087 -0.0174,-0.01449 z m -3.0897,2.425912 c -0.0342,0.03624 -0.10845,0.105546 -0.12586,0.127292 -0.0289,0.03596 -0.0145,0.0174 -0.0388,0.0493 -7.5e-4,0.01449 -0.006,0.09859 -0.0115,0.124392 -0.006,0.029 -0.009,0.04523 -0.0145,0.06002 -0.009,0.02929 -0.0145,0.04582 -0.0174,0.05857 -0.009,0.0261 -0.0145,0.03798 -0.0203,0.04959 -0.009,0.02319 -0.0145,0.03769 -0.0232,0.05538 -0.0174,0.03566 -0.0354,0.07684 -0.0586,0.124394 -0.0203,0.04377 -0.0543,0.106994 -0.0808,0.160345 h 2.34352 c 0.0963,-0.190503 0.1992,-0.357316 0.32965,-0.485478 a 0.75482176,0.75482176 0 0 0 0,-0.0014 c -0.006,0.0059 0.0789,-0.108736 0.0464,-0.05248 0.0584,-0.100615 0.13511,-0.181516 0.2053,-0.269662 z m 6.85669,0 c 0.0174,0.0203 0.0304,0.03711 0.0629,0.100322 0.0115,0.0203 0.0233,0.04495 0.0359,0.07946 0.0116,0.03451 0.0388,0.142081 0.0388,0.14237 6e-5,3.47e-4 -0.003,0.267924 -0.003,0.268213 -3e-5,1.45e-4 -0.0581,0.111633 -0.11397,0.218918 h 0.90205 c -0.0305,-0.09858 -0.0359,-0.179484 -0.0359,-0.28619 0,0.124103 -0.0473,-0.247913 -0.11395,-0.448014 -0.009,-0.02319 -0.0233,-0.05104 -0.0317,-0.0748 z m 3.72953,0 c 0,0.0027 3e-5,0.0017 0,0.0059 -2.3e-4,0.02029 -7.5e-4,0.04755 -0.006,0.0809 -0.003,0.03335 -0.0261,0.131641 -0.0261,0.131931 -1e-4,3.21e-4 -0.10787,0.221529 -0.10787,0.22182 -6e-5,8.6e-5 -0.0864,0.06843 -0.17223,0.136281 -0.006,0.03335 -0.0116,0.07307 -0.0116,0.07337 -3e-5,8.8e-5 -0.009,0.02609 -0.0174,0.04959 0.006,0.03799 0.0174,0.07423 0.029,0.110763 h 2.38247 v -0.809193 z m 6.07903,0 v 0.809161 h 3.35942 c 0.0948,-0.288509 0.24386,-0.558984 0.45402,-0.777671 a 0.75482176,0.75482176 0 0 1 0.0116,-0.0116 c 0.009,-0.0087 0.0174,-0.0116 0.0261,-0.0203 z m 6.78628,0 c 0.0116,0.0116 0.0233,0.01739 0.0345,0.029 0.2163,0.218048 0.37151,0.490088 0.47047,0.780684 h 0.97995 v -0.80916 z m 5.41971,0 v 0.434563 c 0.20501,-0.0261 0.40968,-0.05103 0.62936,-0.05103 0.54602,0 1.07731,0.100321 1.57479,0.296685 0.0963,0.03798 0.18936,0.0835 0.28155,0.128743 h 2.04984 v -0.80916 z m 8.47049,0 v 0.809161 h 2.96085 c -0.0261,-0.128742 -0.045,-0.259513 -0.045,-0.391098 0,-0.13831 0.0174,-0.27894 0.0478,-0.418063 z m 10.14119,0 c 0.056,0.08844 0.1099,0.178036 0.15572,0.272851 0.0847,0.170206 0.14613,0.350706 0.1963,0.536425 h 4.20451 l 0.1273,-0.272852 h -2.32403 a 0.75482176,0.75482176 0 0 1 -0.6368,-0.350647 c -0.0382,-0.06002 -0.0663,-0.123521 -0.0974,-0.185863 z m 9.49838,0 c -0.0203,0.04785 -0.029,0.09858 -0.0511,0.14527 -0.10585,0.229648 -0.25488,0.44068 -0.40906,0.648812 l -0.002,0.0059 -0.006,0.0116 h 1.81604 v -0.80916 z m 5.17251,0 c 0.0586,0.202972 0.0927,0.40806 0.0927,0.621848 v 0.187313 h 0.75222 v -0.809161 z m 7.91757,0 c 0.14729,0.160928 0.29638,0.321797 0.44052,0.482493 l 0.009,0.0116 c 0.10118,0.109024 0.19397,0.21022 0.29219,0.316171 h 8.59035 0.0464 v -0.809159 h -0.0464 z m -70.93898,3.220952 c -1.7e-4,0.01449 -0.003,0.03335 -0.003,0.04785 -0.002,0.242696 0.0233,0.469325 0.0203,0.458513 a 0.75482176,0.75482176 0 0 0 0,0.0014 c 0.009,0.03712 0.0787,0.186154 0.0174,0.078 0.0233,0.04117 0.0609,0.124972 0.0945,0.223268 h 2.15169 c 0.009,-0.05104 0.006,-0.09771 0.0261,-0.158896 0.0203,-0.05857 0.0455,-0.124393 0.1244,-0.224719 0.0304,-0.03856 0.087,-0.08757 0.14846,-0.134831 -0.0309,-0.100039 -0.0858,-0.192243 -0.12294,-0.290684 z m 4.54765,0 c 0.0447,0.09482 0.0855,0.190503 0.14528,0.2801 0.009,0.01449 0.22097,0.21196 0.39409,0.374598 -0.0116,-0.05307 -0.0554,-0.127873 -0.0554,-0.158898 0,-9.62e-4 0.0864,-0.35285 0.087,-0.353633 2.5e-4,-4.35e-4 0.0578,-0.09482 0.0884,-0.131931 0.003,-0.0029 0.006,-0.0059 0.0116,-0.0116 z m 3.5707,0 a 0.75482176,0.75482176 0 0 1 -0.0927,0.265311 l -0.0463,0.07946 a 0.75482176,0.75482176 0 0 1 -0.002,0.0029 c 0.0478,-0.04147 0.0577,-0.04437 0.11251,-0.09279 0.10033,-0.08873 0.10901,-0.100322 0.11975,-0.109313 0.009,-0.03943 0.0116,-0.09366 0.0116,-0.14527 z m 2.5518,0 c -0.0261,0.09221 -0.054,0.184415 -0.10495,0.292192 a 0.75482176,0.75482176 0 0 0 -0.002,0 c -0.0362,0.07626 -0.0717,0.161217 -0.096,0.223268 -0.0115,0.03103 -0.0203,0.07336 -0.0261,0.08844 l -0.009,0.04494 a 0.75482176,0.75482176 0 0 1 -0.045,0.160347 h 3.13616 v -0.80913 z m 6.8627,0 v 0.809131 h 3.36091 v -0.534916 a 0.75482176,0.75482176 0 0 1 0.0524,-0.274302 z m 6.87167,0 c 0.10671,0.131932 0.19775,0.274302 0.25778,0.425543 0.0562,0.126424 0.0919,0.254005 0.11828,0.383588 h 1.02343 v -0.809131 z m 9.87749,0 c 0.0829,0.257774 0.14149,0.528277 0.17977,0.809131 h 0.31918 c -0.14265,-0.14237 -0.26646,-0.301267 -0.34913,-0.477969 a 0.75482176,0.75482176 0 0 1 -0.0233,-0.05394 c -0.0341,-0.09105 -0.0507,-0.184124 -0.0704,-0.277201 z m 3.92732,0 v 0.440534 a 0.75482176,0.75482176 0 0 1 -0.0974,0.368597 h 1.6812 v -0.197752 c 0,-0.218339 0.0547,-0.424587 0.14528,-0.611349 z m 11.33093,0 c 0.11279,0.178035 0.19166,0.377005 0.19166,0.61135 v 0.197752 h 1.67675 l 0.37757,-0.809131 z m 6.73383,0 -0.37158,0.809131 h 3.29647 v -0.809131 z m 6.84021,0 v 0.809131 h 1.34409 c -0.20819,-0.174845 -0.36863,-0.401623 -0.45852,-0.641302 -0.0203,-0.05539 -0.0261,-0.112214 -0.042,-0.167886 z m 4.77242,0 v 0.359636 a 0.75482176,0.75482176 0 0 1 -0.14991,0.449495 h 1.61977 c -0.27606,-0.225878 -0.53727,-0.482433 -0.78518,-0.771667 l -0.0314,-0.0374 z m 4.8968,0 c -0.0116,0.03103 -0.0174,0.06408 -0.0317,0.09453 v 0.0014 c -0.1183,0.251104 -0.29225,0.473764 -0.49896,0.653307 -0.0261,0.02319 -0.0551,0.03857 -0.0808,0.06003 h 8.09889 0.0463 v -0.809131 h -0.0463 z m -65.52224,0.773174 c -0.0475,0.0018 -0.0963,0.02319 -0.13628,0.01741 a 0.75482176,0.75482176 0 0 1 -0.0115,0.0174 h 0.10352 c 0.006,-0.0059 0.0289,-0.02319 0.0435,-0.03596 z m -6.00859,2.448415 c -0.006,0.04611 -0.0116,0.09018 -0.0261,0.155709 0.0301,0.0406 0.0519,0.03421 0.0989,0.185864 0.009,0.0316 -0.0174,0.09192 -0.0115,0.13628 0.0289,0.03248 0.0496,0.04175 0.0898,0.110765 0.0232,0.03972 0.0438,0.132221 0.0629,0.220369 h 12.54164 c -0.19601,-0.233998 -0.33053,-0.51088 -0.40456,-0.809131 h -6.50016 c -0.002,0.0014 -0.006,0.0029 -0.006,0.0059 -0.0881,0.0606 -0.12293,0.06959 -0.15136,0.0809 -0.11338,0.04552 -0.11366,0.03683 -0.14235,0.04494 -0.3867,0.107575 -0.66529,0.105546 -1.02942,0.05539 -0.23371,-0.03218 -0.42921,-0.104095 -0.60385,-0.185864 z m 23.5759,0 v 0.809132 h 1.09834 c -0.0721,-0.208772 -0.12294,-0.424704 -0.12294,-0.647334 v -0.161798 z m 9.44744,0 c -0.0314,0.09597 -0.0612,0.192244 -0.0988,0.28474 -0.0727,0.183546 -0.1618,0.35662 -0.25777,0.524449 h 10.25806 c -0.33196,-0.02319 -0.65416,-0.06321 -0.95597,-0.133381 a 0.75482176,0.75482176 0 0 1 -0.006,-0.0014 c -0.46968,-0.111896 -0.89856,-0.285871 -1.27512,-0.528917 a 0.75482176,0.75482176 0 0 1 -0.009,-0.0059 c -0.0647,-0.0432 -0.12498,-0.09134 -0.18587,-0.139181 z m 13.73286,0 c -0.0803,0.06003 -0.16035,0.121494 -0.24733,0.173686 -0.63472,0.380832 -1.41158,0.572233 -2.31352,0.635328 h 4.34236 c 0.11889,-0.230226 0.26649,-0.441954 0.42105,-0.647332 l 0.0748,-0.161797 z m 6.78479,0 -0.20094,0.43752 h 2.47534 a 0.75482176,0.75482176 0 0 1 0.63684,0.350618 c 0.006,0.0059 0.006,0.01449 0.0116,0.02029 h 3.41039 c -0.18208,-0.0059 -0.36302,-0.0116 -0.53343,-0.0406 a 0.75482176,0.75482176 0 0 1 -0.009,-0.0014 c -0.26124,-0.04611 -0.51632,-0.150201 -0.72971,-0.310169 -0.1621,-0.121783 -0.29024,-0.283582 -0.39707,-0.457006 z m 8.31765,0 a 0.75482176,0.75482176 0 0 1 -0.61736,0.681753 c -0.11772,0.02029 -0.27315,0.0429 -0.4615,0.06901 -0.20326,0.03886 -0.41209,0.05191 -0.62185,0.05857 h 18.86042 0.0464 v -0.809132 h -0.0464 z m -42.21757,0.229357 c -0.041,0.195144 -0.0575,0.397244 -0.13048,0.57989 h 0.13048 z m -16.84804,2.992316 c 0.0312,0.03016 0.0647,0.05655 0.10351,0.09598 l 0.002,0.0014 c 0.37573,0.379441 0.2111,0.292075 0.94698,0.422557 0.0997,0.0174 0.19949,0.03595 0.28329,0.05248 0.0826,0.0174 0.0933,0.0116 0.2308,0.05248 l 0.003,0.0014 c 0.0261,0.0087 0.0458,0.0116 0.12294,0.04495 0.0203,0.0087 0.0452,0.0203 0.0823,0.04204 0.0174,0.0116 0.0401,0.0261 0.0674,0.0464 0.0145,0.0116 0.0325,0.029 0.0553,0.0493 h 15.27324 c -0.0615,-0.0864 -0.1209,-0.174266 -0.16497,-0.268213 a 0.75482176,0.75482176 0 0 1 -0.0233,-0.05394 c -0.0597,-0.159187 -0.0901,-0.321391 -0.10932,-0.486989 z m 20.78287,0 v 0.650292 a 0.75482176,0.75482176 0 0 1 -0.0174,0.158898 h 55.46046 0.0464 v -0.80913 h -0.0464 -22.42665 c -0.0649,0.109024 -0.14294,0.212539 -0.23978,0.305674 -0.30711,0.302079 -0.7488,0.459991 -1.16426,0.459991 h -5.62051 a 0.75482176,0.75482176 0 0 1 -0.4795,-0.172235 c -0.19833,-0.163247 -0.35012,-0.371119 -0.47948,-0.593373 z"
       style="color:#000000;font-style:normal;font-variant:normal;font-weight:normal;font-stretch:normal;font-size:medium;line-height:normal;font-family:sans-serif;font-variant-ligatures:normal;font-variant-position:normal;font-variant-caps:normal;font-variant-numeric:normal;font-variant-alternates:normal;font-feature-settings:normal;text-indent:0;text-align:start;text-decoration:none;text-decoration-line:none;text-decoration-style:solid;text-decoration-color:#000000;letter-spacing:normal;word-spacing:normal;text-transform:none;writing-mode:lr-tb;direction:ltr;text-orientation:mixed;dominant-baseline:auto;baseline-shift:baseline;text-anchor:start;white-space:normal;shape-padding:0;clip-rule:nonzero;display:inline;overflow:visible;visibility:visible;opacity:1;isolation:auto;mix-blend-mode:normal;color-interpolation:sRGB;color-interpolation-filters:linearRGB;solid-color:#000000;solid-opacity:1;vector-effect:none;fill:#e6e6e6;fill-opacity:1;fill-rule:nonzero;stroke:none;stroke-width:0.20698602;stroke-linecap:butt;stroke-linejoin:miter;stroke-miterlimit:4;stroke-dasharray:none;stroke-dashoffset:0;stroke-opacity:1;color-rendering:auto;image-rendering:auto;shape-rendering:auto;text-rendering:auto;enable-background:accumulate"
       inkscape:connector-curvature="0" />
    <path
       style="fill:#ffffff;fill-opacity:1;stroke:none;stroke-width:0.19603141;stroke-miterlimit:4;stroke-dasharray:none;stroke-opacity:1"
       d="m 233.65283,-35.862873 c -0.20935,0 -0.42804,0.02029 -0.65628,0.05683 -0.22821,0.029 -0.39435,0.05162 -0.49896,0.0719 v 10.971299 c 0,0.247336 0.029,0.447146 0.0855,0.599374 0.0572,0.152228 0.14207,0.271112 0.25632,0.356622 0.11425,0.08554 0.25197,0.141789 0.41354,0.170783 0.17108,0.03683 0.36715,0.05539 0.58589,0.05539 0.21863,0 0.44152,-0.0116 0.66978,-0.04204 0.22821,-0.029 0.39434,-0.05509 0.49896,-0.0838 v -3.153971 l 2.01237,2.34052 c 0.2282,0.266183 0.46598,0.498468 0.71324,0.698251 0.24734,0.190213 0.56602,0.28474 0.956,0.28474 0.18064,0 0.35077,-0.029 0.51244,-0.0838 0.16151,-0.05712 0.3049,-0.14353 0.42854,-0.257774 0.13309,-0.114244 0.23863,-0.251683 0.31466,-0.413568 0.0763,-0.161797 0.11395,-0.346559 0.11395,-0.555909 -0.19021,-0.199783 -0.40504,-0.423949 -0.64281,-0.671284 -0.22819,-0.247335 -0.46596,-0.503978 -0.71325,-0.77016 -0.24733,-0.275752 -0.4984,-0.551387 -0.7552,-0.827138 -0.25689,-0.27575 -0.50393,-0.547442 -0.7417,-0.813625 l -1.70218,-1.799572 3.48528,-3.422356 c 0.27576,-0.275752 0.47573,-0.523086 0.59937,-0.741716 0.12352,-0.21863 0.18441,-0.450944 0.18441,-0.69825 0,-0.332873 -0.14179,-0.619323 -0.42705,-0.857089 -0.27574,-0.247337 -0.73779,-0.370108 -1.38451,-0.370108 l -2.96684,3.408846 v -2.268581 c 0,-0.247334 -0.0289,-0.445608 -0.0855,-0.597866 -0.0572,-0.152227 -0.14354,-0.272561 -0.25778,-0.3581 -0.11425,-0.08553 -0.25575,-0.141788 -0.42705,-0.170785 -0.1618,-0.03683 -0.35215,-0.05683 -0.57091,-0.05683 z m -50.34038,3.841928 c -0.20935,0 -0.42656,0.0203 -0.65482,0.05683 -0.22819,0.029 -0.39585,0.05017 -0.50046,0.07045 v 10.476827 c 0,0.408988 0.11887,0.731713 0.35662,0.969479 0.23776,0.237766 0.56199,0.356621 0.97096,0.356621 h 3.82243 c 0.26618,0 0.48113,-0.07539 0.6428,-0.227908 0.16182,-0.161797 0.24271,-0.43317 0.24271,-0.813625 0,-0.190214 -0.0289,-0.371351 -0.0853,-0.542427 -0.0572,-0.180644 -0.11917,-0.322376 -0.18586,-0.427051 h -3.26801 v -8.735705 c 0,-0.247335 -0.029,-0.447118 -0.0855,-0.599345 -0.0571,-0.152229 -0.14208,-0.271112 -0.25632,-0.356621 -0.11425,-0.08554 -0.25748,-0.141789 -0.42853,-0.170786 -0.16181,-0.03683 -0.35217,-0.05682 -0.5709,-0.05682 z m -11.07024,0.313155 c -0.0404,0.0059 -0.19977,0.04031 -0.35212,0.06901 -0.21429,0.04001 -0.28821,0.04291 -0.32814,0.02319 -0.0438,-0.02319 -0.12497,0.0029 -0.53793,0.181225 -0.26764,0.115113 -0.63117,0.279519 -0.80914,0.367116 -0.33412,0.164406 -0.84778,0.489103 -0.95147,0.600854 -0.0714,0.07684 -0.0927,0.07713 -0.11395,0.0116 -0.0145,-0.04552 -0.0377,-0.029 -0.21573,0.14237 -0.10933,0.104676 -0.33409,0.317621 -0.50348,0.474983 -0.32662,0.303442 -0.52941,0.549588 -0.59486,0.719242 -0.0232,0.05683 -0.0553,0.101776 -0.0734,0.101776 -0.0365,-3e-5 -0.16324,0.252554 -0.32217,0.629327 -0.11075,0.262702 -0.21601,0.397069 -0.30715,0.397069 -0.0476,0 -0.0751,0.04291 -0.20384,0.334149 -0.29273,0.663136 -0.60491,1.594339 -0.5709,1.703683 0.0115,0.03537 0.0203,0.644057 0.0232,1.353065 0.002,1.393194 0.0115,1.557863 0.14673,2.208646 0.30686,1.465656 1.07852,2.904201 2.15771,4.021732 0.92099,0.953762 1.88787,1.573752 2.9848,1.913469 0.40949,0.126711 0.61291,0.163535 1.09233,0.187312 0.19399,0.0087 0.4042,0.0174 0.46451,0.0174 0.10265,0.0014 0.10904,-0.0023 0.0407,-0.02319 -0.0401,-0.0116 -0.23371,-0.05017 -0.42554,-0.0838 -0.76767,-0.13599 -0.93605,-0.214569 -1.35308,-0.635328 -0.16701,-0.169337 -0.22674,-0.213701 -0.19775,-0.157449 0.0232,0.0493 0.0289,0.078 0.0115,0.078 -0.0592,0 -0.28616,-0.113375 -0.44652,-0.220369 -0.0937,-0.06263 -0.2195,-0.128742 -0.28329,-0.152809 -0.0634,-0.02319 -0.12004,-0.05481 -0.11975,-0.06293 8e-5,-0.0087 0.0261,-0.04494 0.0568,-0.08379 l 0.0568,-0.06901 -0.13628,-0.07337 c -0.13077,-0.06524 -0.46451,-0.372655 -0.46451,-0.430035 0,-0.0116 -0.0545,-0.02609 -0.12441,-0.029 -0.12554,-0.0059 -0.13134,-0.01449 -0.24878,-0.169337 -0.12845,-0.170786 -0.25342,-0.420556 -0.25488,-0.498961 -7.3e-4,-0.04814 -0.006,-0.04668 -0.0407,0 -0.042,0.05539 -0.0261,0.07016 -0.25458,-0.242697 -0.36307,-0.494727 -0.47653,-0.698307 -0.41357,-0.737219 0.0174,-0.0116 -0.002,-0.0429 -0.0511,-0.08988 -0.0412,-0.03944 -0.0969,-0.108154 -0.12439,-0.152809 -0.0502,-0.0812 -0.0483,-0.08207 0,-0.13048 0.0483,-0.04843 0.0464,-0.04785 -0.0629,-0.209931 -0.1186,-0.175715 -0.25546,-0.46144 -0.28155,-0.578382 l -0.0174,-0.06756 0.096,0.08524 c 0.0511,0.04871 0.11278,0.103226 0.14237,0.118304 0.0533,0.02609 0.0545,0.02319 0.0174,-0.06901 -0.17194,-0.412263 -0.31919,-0.597256 -0.49745,-0.623354 -0.1934,-0.029 -0.27459,-0.130481 -0.41958,-0.51543 -0.0721,-0.190793 -0.073,-0.203842 -0.0233,-0.203842 0.0203,0 0.0337,-0.0059 0.0289,-0.0174 -0.14325,-0.28184 -0.1473,-0.29973 -0.13048,-0.504964 0.0145,-0.184703 0.006,-0.207901 -0.0511,-0.311677 -0.0345,-0.06147 -0.0748,-0.189633 -0.096,-0.287639 -0.0547,-0.251974 -0.0514,-0.912269 0.0116,-1.495406 0.0261,-0.254293 0.0586,-0.587892 0.0734,-0.741715 0.0145,-0.153967 0.0478,-0.336178 0.069,-0.403072 0.0203,-0.06697 0.14557,-0.329828 0.2772,-0.588877 0.13193,-0.258934 0.23834,-0.479622 0.23834,-0.491451 0,-0.0116 -0.0203,-0.02319 -0.0463,-0.02319 -0.1157,0 -0.0718,-0.08554 0.25023,-0.486986 0.22849,-0.284739 0.83438,-0.869849 1.07588,-1.041389 0.25429,-0.180643 0.48388,-0.295207 0.59934,-0.295207 0.057,0 0.10094,-0.02319 0.14236,-0.06756 0.052,-0.05712 0.0537,-0.06205 0.0116,-0.04494 -0.0899,0.03537 -0.15744,0.04263 -0.15744,0.0174 0,-0.03856 0.29024,-0.278941 0.44654,-0.373091 0.1499,-0.09018 0.25574,-0.122361 0.57837,-0.164695 0.13107,-0.0174 0.22704,-0.04408 0.26531,-0.07337 0.0601,-0.04611 0.0597,-0.04726 -0.0733,-0.0116 -0.16993,0.04494 -0.20154,0.04611 -0.19197,0 0.006,-0.02319 0.0884,-0.0664 0.20384,-0.106415 0.10701,-0.03712 0.30238,-0.127292 0.43605,-0.203842 0.13367,-0.07655 0.31457,-0.160057 0.40156,-0.187313 0.20529,-0.06408 0.56678,-0.113664 0.57838,-0.07946 0.006,0.0174 0.0787,0.0116 0.22038,-0.0116 0.30138,-0.049 1.0446,-0.02609 1.404,0.04031 0.80481,0.151357 1.35141,0.419598 1.92095,0.9515 0.5254,0.490668 0.99117,1.205445 1.20023,1.834047 0.084,0.252554 0.15281,0.552228 0.15281,0.686247 0,0.05104 0.0145,0.122363 0.0346,0.152807 0.0348,0.049 0.0386,0.138601 0.0261,0.752212 -0.006,0.38379 -0.0174,0.730059 -0.0261,0.77019 -0.0174,0.06989 -0.0203,0.07133 0.0174,0.02319 0.0373,-0.04726 0.0382,-0.0493 0.0388,0.02319 7.4e-4,0.154839 -0.0547,0.397621 -0.15281,0.662294 -0.10177,0.274593 -0.0994,0.274303 -0.21428,0.328177 -0.0948,0.04437 -0.12005,0.07307 -0.1528,0.158898 -0.0233,0.06263 -0.0311,0.130771 -0.0233,0.169335 0.0328,0.130772 -0.0261,0.214571 -0.32365,0.47649 -0.5292,0.467965 -0.76236,0.635532 -0.81514,0.582875 -0.0203,-0.02029 -0.0116,-0.04523 0.0232,-0.08554 0.0261,-0.03044 -0.0115,-0.0029 -0.0794,0.05683 -0.067,0.0606 -0.15629,0.139178 -0.20384,0.175424 -0.10003,0.07568 -0.40111,0.194272 -0.45853,0.181224 -0.0203,-0.0059 -0.091,0.0116 -0.15279,0.03451 -0.60049,0.228199 -1.36568,0.121783 -2.01087,-0.2772 -0.24328,-0.150489 -0.6772,-0.563709 -0.8271,-0.788166 -0.24068,-0.359955 -0.39811,-0.766216 -0.44654,-1.159778 -0.0203,-0.173686 -0.0368,-0.225298 -0.0629,-0.21573 -0.0261,0.0087 -0.0289,-0.03537 -0.0289,-0.20993 0,-0.754503 0.38656,-1.481024 1.00841,-1.89697 0.61583,-0.411886 1.41489,-0.481013 2.08429,-0.220369 -0.45482,-0.27894 -0.91027,-0.515807 -1.42796,-0.425543 -0.54999,0.09597 -1.10593,0.449582 -1.34108,0.855582 -0.0359,0.06234 -0.11425,0.158896 -0.1708,0.214279 -0.12092,0.118883 -0.19659,0.257194 -0.34011,0.63533 -0.058,0.153098 -0.12352,0.302339 -0.14672,0.328146 -0.0626,0.06989 -0.0777,0.865122 -0.0233,1.183758 0.12701,0.72858 0.50321,1.273325 1.33057,1.937419 0.16267,0.13077 0.29988,0.253134 0.30567,0.271111 0.0145,0.04088 0.37892,0.158898 0.71475,0.232257 0.34164,0.07423 1.18626,0.07974 1.50591,0.0116 0.33522,-0.0722 0.58041,-0.158318 0.88856,-0.310169 0.37688,-0.185862 0.67338,-0.399099 1.06536,-0.770159 0.17398,-0.164407 0.32255,-0.295208 0.33415,-0.295208 0.0115,0 0.0145,0.0087 0.0174,0.01741 0,-0.0014 4.6e-4,-0.0029 0,-0.0059 0.003,-0.02611 0.009,-0.04523 0.0116,-0.0748 0.003,-0.119465 0.0203,-0.170787 0.0898,-0.28764 0.0467,-0.07887 0.0934,-0.148169 0.10788,-0.152809 0.0145,-0.0059 0.0519,0.03045 0.0855,0.07946 l 0.0615,0.08988 0.0174,-0.113954 c 0.009,-0.06293 0.0887,-0.262994 0.17542,-0.446537 0.18616,-0.39478 0.23836,-0.552633 0.23836,-0.741715 0,-0.111055 0.009,-0.144399 0.045,-0.170786 0.035,-0.02319 0.0511,-0.06582 0.0568,-0.163246 l 0.006,-0.135991 0.0511,0.107864 0.0511,0.107865 0.0289,-0.170785 c 0.0145,-0.09395 0.0667,-0.277493 0.11396,-0.407568 0.0748,-0.20703 0.0823,-0.236026 0.045,-0.232258 -0.0232,0.0023 -0.0588,0.0014 -0.0734,0 -0.0817,-0.0087 -0.12091,-0.470311 -0.045,-0.525955 0.0261,-0.0203 0.029,-0.03566 0.0116,-0.04639 -0.0511,-0.0316 -0.1563,-0.28155 -0.20384,-0.480984 -0.0261,-0.108734 0.0458,-0.0812 0.11976,0.04494 0.0357,0.0609 0.0676,0.106416 0.0734,0.101776 0.006,-0.0059 -0.0174,-0.119174 -0.0511,-0.259223 -0.0337,-0.14005 -0.0564,-0.28648 -0.0568,-0.323652 -2.7e-4,-0.0374 -0.0233,-0.115404 -0.0511,-0.169336 -0.0412,-0.08033 -0.0564,-0.09279 -0.0855,-0.06901 -0.0203,0.01449 -0.0531,0.02609 -0.0734,0.0174 -0.0458,-0.0174 -0.11048,-0.258354 -0.10179,-0.362623 0.006,-0.07597 0.0116,-0.07973 0.12441,-0.09134 0.0887,-0.0087 0.12467,-0.02609 0.13627,-0.06147 0.0145,-0.04234 0.0233,-0.03509 0.0674,0.02987 0.0742,0.104965 0.2195,0.40426 0.31168,0.639823 0.0942,0.240377 0.11163,0.233418 0.029,-0.0116 -0.0588,-0.172524 -0.11367,-0.668268 -0.0734,-0.668268 0.0116,0 0.0365,0.0116 0.0511,0.029 0.0432,0.0432 0.0373,0.0174 -0.045,-0.191664 -0.22647,-0.573293 -0.63258,-1.154195 -1.16721,-1.670729 -0.26241,-0.253424 -0.66815,-0.571857 -0.8781,-0.69074 l -0.10785,-0.06292 0.069,0.07945 c 0.13134,0.155998 0.0768,0.158898 -0.14673,0.0059 -0.15889,-0.108445 -0.23747,-0.184994 -0.26068,-0.260673 -0.029,-0.09569 -0.24906,-0.141501 -0.442,-0.09134 -0.19051,0.04959 -0.26125,0.04031 -0.43005,-0.04494 -0.28066,-0.14179 -0.52516,-0.234866 -0.92302,-0.356621 -0.21776,-0.06669 -0.41592,-0.131061 -0.44201,-0.14092 -0.041,-0.01449 -0.043,-0.0087 -0.0289,0.05104 0.0174,0.06438 0.0145,0.06582 -0.0511,0.05104 -0.18267,-0.04147 -0.34949,-0.03886 -0.56638,0 -0.35293,0.06321 -0.63605,0.029 -0.40756,-0.05104 0.0707,-0.02319 0.0547,-0.02956 -0.18122,-0.0464 -0.14441,-0.0087 -0.3218,-0.01449 -0.3911,-0.0059 -0.14846,0.0203 -0.14671,0.01449 0.0568,-0.09743 0.11511,-0.0635 0.13976,-0.08263 0.0855,-0.07337 z m 0.75822,0.09134 c -0.0524,0.0014 -0.0527,0.0029 -0.006,0.02319 0.0673,0.029 0.0907,0.029 0.0733,0 -0.009,-0.01449 -0.038,-0.02319 -0.0673,-0.02319 z m 56.03132,0.665311 c -0.3961,0 -0.71675,0.123522 -0.96196,0.368597 -0.23574,0.245304 -0.35364,0.546629 -0.35364,0.905047 0,0.358389 0.11773,0.659802 0.35364,0.90502 0.24531,0.245306 0.56586,0.368626 0.96196,0.368626 0.39616,0 0.71272,-0.123524 0.94849,-0.368626 0.24531,-0.245305 0.36712,-0.546631 0.36712,-0.90502 0,-0.358418 -0.12179,-0.659802 -0.36712,-0.905047 -0.23574,-0.245308 -0.55233,-0.368597 -0.94849,-0.368597 z m -22.74576,0.206741 c -0.27576,0 -0.55131,0.02319 -0.82715,0.0719 -0.27575,0.03799 -0.54184,0.09453 -0.79863,0.170787 -0.2569,0.07626 -0.49997,0.166725 -0.72823,0.271111 -0.21863,0.09511 -0.40375,0.204421 -0.55591,0.328147 -0.15223,0.123811 -0.27112,0.265311 -0.35662,0.42705 -0.0763,0.152229 -0.11396,0.338615 -0.11396,0.55739 v 4.279446 c 0,0.237767 0.029,0.432271 0.0855,0.584384 0.0667,0.14266 0.15717,0.257483 0.27112,0.343136 0.11425,0.08554 0.25198,0.142081 0.41358,0.170786 0.17107,0.029 0.36166,0.04349 0.5709,0.04349 0.21862,0 0.42809,-0.01449 0.62781,-0.04349 0.20935,-0.029 0.36043,-0.05712 0.45553,-0.08554 v -4.863802 c 0.12352,-0.05712 0.27082,-0.105835 0.44201,-0.143819 0.18064,-0.04755 0.37117,-0.08931 0.57089,-0.127292 0.1998,-0.03769 0.40511,-0.06582 0.61434,-0.08524 0.20936,-0.02029 0.41314,-0.02987 0.61287,-0.02987 0.0571,-0.104675 0.10439,-0.218049 0.14235,-0.34163 0.038,-0.133092 0.0569,-0.266762 0.0569,-0.400056 0,-0.39939 -0.13224,-0.684361 -0.39859,-0.855611 -0.26618,-0.180645 -0.62832,-0.271112 -1.08483,-0.271112 z m -10.75255,0.184413 c -0.21864,0 -0.43211,0.02029 -0.64134,0.05682 -0.20936,0.029 -0.36189,0.05655 -0.457,0.08554 v 9.735141 c 0,0.466051 0.20934,0.845463 0.62782,1.140263 0.30436,0.218628 0.67433,0.399767 1.11181,0.542427 0.43753,0.152228 0.9711,0.227617 1.59882,0.227617 0.58017,0 1.10827,-0.07539 1.58379,-0.227617 0.48506,-0.161798 0.89283,-0.393909 1.2257,-0.69825 0.33291,-0.304342 0.59099,-0.68529 0.7717,-1.141771 0.1902,-0.466053 0.28474,-1.009088 0.28474,-1.62728 0,-0.599201 -0.0904,-1.125765 -0.27112,-1.582307 -0.18064,-0.45654 -0.42787,-0.83746 -0.74172,-1.141801 -0.31387,-0.31385 -0.67585,-0.551442 -1.08486,-0.713241 -0.40895,-0.161506 -0.84107,-0.242695 -1.29761,-0.242695 -0.25691,0 -0.49447,0.0203 -0.71324,0.05683 -0.20936,0.03799 -0.43351,0.105545 -0.67127,0.200941 v -3.53025 c 0,-0.237767 -0.029,-0.428241 -0.0856,-0.570901 -0.0571,-0.152228 -0.14209,-0.271112 -0.25632,-0.35662 -0.11425,-0.08554 -0.25748,-0.14179 -0.42852,-0.170786 -0.1618,-0.029 -0.34668,-0.04204 -0.55591,-0.04204 z m 23.68076,1.014421 c -0.26618,0 -0.4851,0.0809 -0.65628,0.242696 -0.16181,0.161798 -0.2427,0.42772 -0.2427,0.798634 0,0.199783 0.029,0.390257 0.0852,0.570901 0.0571,0.180644 0.11918,0.323856 0.18588,0.42853 h 3.50925 l -3.32945,7.153404 c -0.17108,0.209351 -0.31841,0.437433 -0.44204,0.684768 -0.12353,0.247334 -0.18587,0.490465 -0.18587,0.728232 0,0.294859 0.0528,0.555445 0.15745,0.783643 0.10468,0.228197 0.23835,0.409335 0.40008,0.542426 h 5.62052 c 0.26617,0 0.47964,-0.0809 0.64132,-0.242695 0.17108,-0.161797 0.25778,-0.427748 0.25778,-0.798664 0,-0.199782 -0.0289,-0.390226 -0.0855,-0.5709 -0.0571,-0.180645 -0.11917,-0.322348 -0.18586,-0.427023 h -3.6531 l 3.28749,-7.154883 c 0.17108,-0.20935 0.30896,-0.428125 0.41358,-0.656322 0.11424,-0.237766 0.17077,-0.475475 0.17077,-0.713242 0,-0.570638 -0.20934,-1.027121 -0.62785,-1.369533 z m -52.45465,1.089348 c -0.0454,7.41e-4 -0.073,0.04377 -0.10787,0.163245 -0.043,0.147881 -0.0145,0.1589 0.0734,0.02987 0.0524,-0.07742 0.0725,-0.192533 0.0345,-0.191663 z m 62.14485,0.660787 c -0.2076,0 -0.41434,0.0203 -0.62184,0.05683 -0.19806,0.029 -0.34877,0.05162 -0.45251,0.07046 v 5.758383 c 0,0.235736 0.0261,0.428994 0.0838,0.579886 0.0661,0.141501 0.15656,0.253714 0.26965,0.338647 0.1131,0.08496 0.24878,0.14237 0.40904,0.170785 0.16963,0.029 0.35892,0.04204 0.5664,0.04204 0.20764,0 0.41031,-0.0203 0.60838,-0.05682 0.20761,-0.029 0.36375,-0.05161 0.46746,-0.07045 v -5.758382 c 0,-0.235738 -0.0327,-0.423428 -0.0989,-0.564899 -0.0564,-0.150778 -0.14148,-0.270242 -0.25486,-0.355113 -0.11309,-0.08496 -0.25575,-0.140919 -0.42555,-0.169336 -0.16034,-0.029 -0.34391,-0.04204 -0.55141,-0.04204 z m -62.56887,0.576902 c -0.003,-0.01449 -0.0203,0.0029 -0.0464,0.05248 -0.0261,0.04668 -0.0443,0.128452 -0.045,0.181224 -0.002,0.127003 0.0331,0.08524 0.0673,-0.07945 0.0174,-0.08931 0.0289,-0.13889 0.0232,-0.154258 z m 24.40152,0.116853 c -0.39947,0 -0.72371,0.122944 -0.97099,0.370104 -0.23777,0.247336 -0.35661,0.552634 -0.35661,0.914039 0,0.361404 0.11887,0.665252 0.35661,0.91253 0.24733,0.247335 0.57152,0.371611 0.97099,0.371611 0.39945,0 0.71819,-0.124392 0.95597,-0.371611 0.24734,-0.247336 0.37009,-0.551126 0.37009,-0.91253 0,-0.361405 -0.12294,-0.666761 -0.37009,-0.914039 -0.23778,-0.247334 -0.55652,-0.370104 -0.95597,-0.370104 z m -16.19627,0.0261 c -0.0145,-0.0059 -0.0305,0.0116 -0.045,0.0059 0.0418,0.0261 0.089,0.0116 0.13047,0.03886 -0.0312,-0.01449 -0.058,-0.03363 -0.0853,-0.04494 z m 0.0852,0.04494 c 0.0829,0.03973 0.17397,0.08409 0.22617,0.118304 0.0719,0.04726 0.13511,0.08003 0.14091,0.0751 0.006,-0.0059 -0.0478,-0.05973 -0.11829,-0.119754 -0.0781,-0.0664 -0.16993,-0.01741 -0.24879,-0.07337 z m 0.96796,1.483433 c -0.009,-0.02319 -0.0232,-0.01449 -0.0511,0.02319 -0.0357,0.049 -0.0233,0.119462 0.0233,0.227617 0.0203,0.04378 0.0261,0.06118 0.0345,-0.07945 0.003,-0.09279 0.002,-0.148169 -0.006,-0.170786 z m -0.0289,0.251686 c -0.002,-5.9e-5 -0.002,0.01739 -0.006,0.0116 h 0.006 c -0.002,-0.0059 6.3e-4,-0.0059 0,-0.0116 z m 22.60494,0.92308 c 0.50685,0 0.90968,0.155708 1.20921,0.471998 0.29945,0.316115 0.44949,0.797416 0.44949,1.439967 0,0.632371 -0.14991,1.110687 -0.44949,1.436948 -0.28793,0.316114 -0.69579,0.475012 -1.22571,0.475012 -0.26503,0 -0.49145,-0.02319 -0.67577,-0.06147 -0.17283,-0.05104 -0.31984,-0.109894 -0.44651,-0.181225 v -3.336961 c 0.196,-0.08147 0.37212,-0.145849 0.5334,-0.184414 0.17281,-0.03944 0.37498,-0.06002 0.60538,-0.06002 z m -23.03499,-0.0464 c -0.0174,0 -0.15889,0.230227 -0.15889,0.256324 0,0.02319 0.0319,-0.02029 0.1183,-0.164697 0.0319,-0.05017 0.0463,-0.09134 0.0404,-0.09134 z m 0.11397,0.238347 -0.0913,0.06293 c -0.0516,0.03508 -0.1102,0.06118 -0.13049,0.06147 -0.0233,1.74e-4 -0.0115,0.01449 0.0232,0.03451 0.0699,0.03683 0.0893,0.029 0.15281,-0.07946 z m 15.35862,0.260673 c -0.20935,0 -0.41859,0.02029 -0.62781,0.05683 -0.19978,0.029 -0.35091,0.05248 -0.45553,0.0719 v 5.806312 c 0,0.237767 0.0289,0.432242 0.0852,0.584383 0.0667,0.142661 0.15716,0.257485 0.27112,0.343138 0.11425,0.08554 0.25197,0.14208 0.41356,0.170787 0.17108,0.029 0.36017,0.04203 0.56941,0.04203 0.20934,0 0.4146,-0.0174 0.61433,-0.05683 0.20934,-0.029 0.36589,-0.05104 0.47052,-0.07045 v -5.806313 c 0,-0.237766 -0.034,-0.428239 -0.10034,-0.5709 -0.0571,-0.152228 -0.14208,-0.270821 -0.25632,-0.356621 -0.11425,-0.08554 -0.25747,-0.14208 -0.42856,-0.170785 -0.16179,-0.029 -0.34664,-0.04349 -0.5559,-0.04349 z m -16.28313,0.311676 -0.15283,0.02319 c -0.0861,0.0116 -0.23716,0.01449 -0.33414,0.0059 -0.11453,-0.0087 -0.17541,-0.0059 -0.17541,0.0116 0,0.03653 0.0261,0.04611 0.22182,0.09743 0.0974,0.02609 0.18932,0.05045 0.20384,0.05104 0.0145,3.19e-4 0.0713,-0.04611 0.13047,-0.09743 z m -3.09723,0.271111 c -0.0145,-0.0087 -0.002,0.02611 0.0289,0.07946 0.0311,0.05421 0.0617,0.09597 0.0677,0.09134 0.0116,-0.0116 -0.0657,-0.152229 -0.096,-0.170785 z m -0.31764,0.158898 c -0.0115,-5.22e-4 -0.0233,0.029 -0.0233,0.06756 0,0.04814 0.0564,0.146719 0.17543,0.311649 0.0951,0.13193 0.19284,0.265022 0.22182,0.295207 0.0742,0.0812 0.076,0.07075 0.006,-0.04495 -0.0345,-0.05683 -0.12672,-0.225299 -0.20993,-0.368595 -0.0834,-0.143241 -0.16092,-0.260093 -0.17077,-0.260674 z m 6.29627,0.0087 c -0.003,0.0087 -0.006,0.01741 -0.0145,0.02319 -0.0145,0.0087 -0.0233,0.0493 -0.0233,0.08524 v 0.06147 l 0.0233,-0.06147 c 0.009,-0.01741 0.009,-0.06959 0.0145,-0.109314 z m -5.91119,0.263573 c -0.0644,-0.02609 0.21573,0.318694 0.40907,0.503457 0.0562,0.05393 0.15282,0.05132 0.21428,0.101775 -0.10612,-0.09018 -0.19369,-0.152228 -0.37913,-0.356621 -0.12148,-0.13367 -0.23254,-0.243565 -0.24412,-0.248785 z m 0.62332,0.605349 c 0.0514,0.04377 0.14847,0.158317 0.18124,0.175424 0.0969,0.05017 0.0994,0.03364 0.006,-0.04494 -0.0174,-0.01449 -0.0325,-0.03769 -0.0567,-0.06293 -0.0397,-0.03016 -0.0924,-0.03596 -0.1305,-0.06756 z m 0.13049,0.06756 c 0.12178,0.0925 0.27314,0.114244 0.40757,0.193403 -0.17543,-0.104676 -0.35398,-0.216021 -0.47499,-0.323652 -0.0666,-0.05944 -0.13047,-0.106416 -0.13627,-0.106416 -0.0174,0 0.11249,0.14237 0.20383,0.236608 z m 0.40757,0.193403 v 0.0014 c 0.002,0.0014 0.003,0.0014 0.006,0.0029 -0.002,-0.0014 -0.003,-0.0029 -0.006,-0.0059 z m 0.006,0.0059 c 0.0233,0.01449 0.039,0.03305 0.0629,0.0464 0.0481,0.02609 0.0345,0.0023 0.0553,0.0116 -0.0404,-0.02319 -0.0788,-0.03624 -0.11829,-0.05857 z m 0.1183,0.05857 c 0.002,6.09e-4 0.002,7.41e-4 0.006,0.0014 -0.002,-7.42e-4 -0.003,-0.0023 -0.006,-0.0029 z m 0.006,0.0014 c 0.14527,0.07887 0.28503,0.167886 0.42554,0.253134 -0.0934,-0.05307 -0.17687,-0.114824 -0.25313,-0.187314 -0.0711,-0.06843 -0.0913,-0.07946 -0.0913,-0.04495 0,0.02319 -0.0487,-0.0087 -0.0809,-0.0203 z m 0.44352,0.265312 c 0.23604,0.14266 0.47304,0.270821 0.72522,0.305672 0.20587,0.029 0.56108,0.0116 0.72373,-0.03451 0.11947,-0.03305 0.11454,-0.03074 -0.22037,-0.03305 -0.54897,-0.0029 -0.93563,-0.07713 -1.22866,-0.238347 z"
       id="path6379"
       inkscape:connector-curvature="0"
       sodipodi:nodetypes="sccscccscccccscccccccccccscccscccssccsssscscccscccsccccccccccccsccccccccccccsccccccscccccccccccccccccsccccccccssccsccscccccccccccccsccccccccccccccccccccsccccccccccccccscccccccccscccccccccccccccccccccccccscccccccccccccccccccccccccscccscscsscccccsscccsccccccccscsscccccscccscccsccscccsscscccccsccscscccccscscccccsccccccsccscccsccccsscscscscsccccccccccccccccsccscscsccccsccccssccccscsscccsccscccscccscccccccccsccccccccccccccccccccccccsccccccccccccccccccccccccccccscccccccc" />
    <rect
       style="opacity:1;fill:#e6e6e6;fill-opacity:1;stroke:none;stroke-width:0.14818121;stroke-linecap:round;stroke-linejoin:bevel;stroke-miterlimit:4;stroke-dasharray:none;stroke-dashoffset:0;stroke-opacity:1"
       id="rect6381"
       width="2.4944735"
       height="12.850319"
       x="157.27798"
       y="-30.31349" />
    <g
       transform="matrix(2.89959,0,0,2.89959,119.02939,-707.64712)"
       aria-label="LibraZiK"
       style="font-style:normal;font-variant:normal;font-weight:normal;font-stretch:normal;font-size:3.17499995px;line-height:1.39999998;font-family:'Baloo Bhaina';-inkscape-font-specification:'Baloo Bhaina';text-align:justify;text-decoration:none;text-decoration-line:none;text-decoration-color:#000000;text-anchor:start;opacity:1;fill:#ffffff;fill-opacity:1;stroke:none;stroke-width:0.1352132;stroke-linecap:round;stroke-linejoin:bevel;stroke-miterlimit:4;stroke-dasharray:none;stroke-dashoffset:0;stroke-opacity:1"
       id="g6385">
      <path
         d="m 32.271614,236.28676 q 0.0843,0 0.183435,-0.0156 0.104114,-0.0198 0.153682,-0.0497 v -0.39664 l -0.356956,0.0296 q -0.138816,0.0102 -0.228056,0.0596 -0.08924,0.0495 -0.08924,0.14865 0,0.0991 0.07435,0.1636 0.07932,0.0595 0.26276,0.0595 z m -0.03967,-1.94838 q 0.267718,0 0.485857,0.0545 0.223098,0.0545 0.376787,0.16856 0.158647,0.10911 0.242929,0.2826 0.0843,0.16856 0.0843,0.40157 v 1.11053 q 0,0.12883 -0.07437,0.21319 -0.06941,0.0793 -0.168563,0.13881 -0.322252,0.19334 -0.907263,0.19334 -0.262759,0 -0.475941,-0.0497 -0.208226,-0.0495 -0.361914,-0.14865 -0.148732,-0.0991 -0.233013,-0.25284 -0.07932,-0.15364 -0.07932,-0.35696 0,-0.34208 0.203267,-0.52551 0.203267,-0.18346 0.629631,-0.22806 l 0.649462,-0.0695 v -0.0348 q 0,-0.1438 -0.128901,-0.20325 -0.123935,-0.0645 -0.361914,-0.0645 -0.188392,0 -0.366871,0.0396 -0.178478,0.0397 -0.322252,0.0991 -0.06444,-0.0447 -0.109073,-0.13382 -0.04461,-0.0941 -0.04461,-0.19336 0,-0.12883 0.05949,-0.20325 0.06444,-0.0793 0.193351,-0.13383 0.143782,-0.0545 0.337125,-0.0793 0.19831,-0.0248 0.37183,-0.0248 z"
         style="fill:#ffffff;fill-opacity:1;stroke-width:0.13521318"
         id="path6383"
         inkscape:connector-curvature="0" />
    </g>
    <text
       id="text2884"
       y="-24.048388"
       x="242.50467"
       style="font-style:normal;font-variant:normal;font-weight:bold;font-stretch:normal;font-size:23.16524696px;line-height:1.39999998;font-family:'Baloo Bhaina';-inkscape-font-specification:'Baloo Bhaina Bold';text-align:justify;text-decoration:none;text-decoration-line:none;text-decoration-color:#000000;text-anchor:start;opacity:1;fill:#ffffff;fill-opacity:1;stroke:none;stroke-width:0.39206311;stroke-linecap:round;stroke-linejoin:bevel;stroke-miterlimit:4;stroke-dasharray:none;stroke-dashoffset:0;stroke-opacity:1"
       xml:space="preserve"><tspan
         style="font-style:normal;font-variant:normal;font-weight:bold;font-stretch:normal;font-family:'Baloo Bhaina';-inkscape-font-specification:'Baloo Bhaina Bold';fill:#ffffff;fill-opacity:1;stroke-width:0.39206311"
         y="-24.048388"
         x="242.50467"
         id="tspan2882"
         sodipodi:role="line">3</tspan></text>
  </g>
  <g
     style="display:inline"
     transform="translate(-146.25339,-148.55099)"
     inkscape:label="Calque 2"
     id="layer2"
     inkscape:groupmode="layer" />
</svg>
