<?xml version="1.0" encoding="UTF-8" standalone="no"?>
<svg
   xmlns:dc="http://purl.org/dc/elements/1.1/"
   xmlns:cc="http://creativecommons.org/ns#"
   xmlns:rdf="http://www.w3.org/1999/02/22-rdf-syntax-ns#"
   xmlns:svg="http://www.w3.org/2000/svg"
   xmlns="http://www.w3.org/2000/svg"
   xmlns:sodipodi="http://sodipodi.sourceforge.net/DTD/sodipodi-0.dtd"
   xmlns:inkscape="http://www.inkscape.org/namespaces/inkscape"
   inkscape:export-ydpi="96"
   inkscape:export-xdpi="96"
   inkscape:export-filename="/home/elisa/Pro/Activstudio/LibraZIK/fond-ecran-1755x1167-couleur-JardinModerne.png"
   sodipodi:docname="logo-LZK4.svg"
   inkscape:version="1.0.2 (e86c870879, 2021-01-15)"
   id="svg1564"
   version="1.1"
   viewBox="0 0 99.62755 24.991036"
   height="94.454308"
   width="376.5451">
  <defs
     id="defs1558">
    <clipPath
       id="clipPath18"
       clipPathUnits="userSpaceOnUse">
      <path
         inkscape:connector-curvature="0"
         id="path16"
         d="M 0,595.28 H 841.89 V 0 H 0 Z" />
    </clipPath>
  </defs>
  <sodipodi:namedview
     inkscape:document-rotation="0"
     units="px"
     fit-margin-bottom="0"
     fit-margin-right="0"
     fit-margin-left="0"
     fit-margin-top="0"
     inkscape:window-maximized="0"
     inkscape:window-y="0"
     inkscape:window-x="48"
     inkscape:window-height="908"
     inkscape:window-width="1392"
     showgrid="false"
     inkscape:current-layer="layer1"
     inkscape:document-units="mm"
     inkscape:cy="-48.309335"
     inkscape:cx="205.66982"
     inkscape:zoom="0.93852459"
     inkscape:pageshadow="2"
     inkscape:pageopacity="0"
     borderopacity="1.0"
     bordercolor="#666666"
     pagecolor="#6c6c6c"
     id="base" />
  <metadata
     id="metadata1561">
    <rdf:RDF>
      <cc:Work
         rdf:about="">
        <dc:format>image/svg+xml</dc:format>
        <dc:type
           rdf:resource="http://purl.org/dc/dcmitype/StillImage" />
        <dc:title />
      </cc:Work>
    </rdf:RDF>
  </metadata>
  <g
     transform="translate(-157.15179,41.241344)"
     id="layer1"
     inkscape:groupmode="layer"
     inkscape:label="Calque 1">
    <path
       id="path6377"
       style="color:#000000;font-style:normal;font-variant:normal;font-weight:normal;font-stretch:normal;font-size:medium;line-height:normal;font-family:sans-serif;font-variant-ligatures:normal;font-variant-position:normal;font-variant-caps:normal;font-variant-numeric:normal;font-variant-alternates:normal;font-feature-settings:normal;text-indent:0;text-align:start;text-decoration:none;text-decoration-line:none;text-decoration-style:solid;text-decoration-color:#000000;letter-spacing:normal;word-spacing:normal;text-transform:none;writing-mode:lr-tb;direction:ltr;text-orientation:mixed;dominant-baseline:auto;baseline-shift:baseline;text-anchor:start;white-space:normal;shape-padding:0;clip-rule:nonzero;display:inline;overflow:visible;visibility:visible;opacity:1;isolation:auto;mix-blend-mode:normal;color-interpolation:sRGB;color-interpolation-filters:linearRGB;solid-color:#000000;solid-opacity:1;vector-effect:none;fill:#e6e6e6;fill-opacity:1;fill-rule:nonzero;stroke:none;stroke-width:0.782309;stroke-linecap:butt;stroke-linejoin:miter;stroke-miterlimit:4;stroke-dasharray:none;stroke-dashoffset:0;stroke-opacity:1;color-rendering:auto;image-rendering:auto;shape-rendering:auto;text-rendering:auto;enable-background:accumulate"
       d="M 0 40.464844 L 0 92.199219 L 0.83789062 92.199219 L 0.83789062 92.324219 L 46.087891 92.324219 C 44.836565 91.417907 43.621754 90.403951 42.447266 89.265625 L 2.7871094 89.265625 L 2.7871094 80.148438 L 35.632812 80.148438 C 35.118797 79.15006 34.662826 78.127339 34.251953 77.089844 L 2.7871094 77.089844 L 2.7871094 67.970703 L 32.126953 67.970703 C 32.083111 67.239731 32.073461 66.010076 32.0625 64.914062 L 2.7832031 64.914062 L 2.7832031 55.800781 L 32.080078 55.800781 C 32.06874 55.778482 32.034776 55.757017 32.023438 55.746094 C 31.793642 55.40416 31.714455 55.16653 31.65625 54.982422 C 31.424943 54.247069 31.499685 54.102487 31.501953 53.855469 C 31.509512 53.392991 31.546261 53.073908 31.632812 52.744141 L 2.7792969 52.744141 L 2.7792969 43.626953 L 38.576172 43.626953 C 39.127378 42.711873 39.728544 41.885783 40.677734 41.003906 C 40.831561 40.861456 40.96596 40.7284 41.136719 40.568359 L 2.7792969 40.568359 L 2.7792969 40.470703 L 0 40.464844 z M 173.01953 40.556641 L 151.91211 40.5625 C 152.09164 40.868264 152.2883 41.171079 152.41016 41.492188 C 152.68606 42.193566 152.80186 42.901611 152.86328 43.623047 L 170.66211 43.623047 C 170.71691 43.481693 170.73867 43.33058 170.80859 43.191406 A 2.8528696 2.8528696 0 0 1 170.84375 43.125 C 171.35554 42.158412 172.07148 41.314579 172.91016 40.632812 C 172.94417 40.610513 172.98703 40.589523 173.01953 40.556641 z M 78.119141 40.5625 C 79.114215 41.527995 79.993595 42.555539 80.775391 43.621094 L 91.654297 43.621094 L 91.654297 40.5625 L 78.119141 40.5625 z M 106.79688 40.5625 L 106.79688 43.621094 L 138.05859 43.621094 L 138.05859 40.902344 A 2.8528696 2.8528696 0 0 1 138.08203 40.564453 L 106.79688 40.5625 z M 193.32031 40.5625 C 193.81675 41.512651 194.08588 42.570555 194.13086 43.621094 L 229.66797 43.621094 C 229.8029 43.447916 229.90776 43.262688 230.07031 43.101562 A 2.8528696 2.8528696 0 0 1 230.125 43.046875 C 231.30871 41.928392 232.97989 41.347656 234.56445 41.347656 L 254.67578 41.347656 A 2.8528696 2.8528696 0 0 1 256.48242 41.992188 C 257.06655 42.470003 257.56864 43.024464 258.01172 43.623047 L 263.84961 43.623047 C 263.86095 42.572074 264.10073 41.532888 264.51758 40.566406 L 193.32031 40.5625 z M 278.80859 40.5625 C 279.23821 41.526896 279.48126 42.569898 279.49219 43.621094 L 281.91602 43.621094 L 281.91602 40.5625 L 278.80859 40.5625 z M 303.19922 40.5625 L 300.13086 43.576172 L 300.17383 43.621094 L 316.14062 43.621094 A 25.968809 25.968809 0 0 1 315.88477 40.5625 L 303.19922 40.5625 z M 55.5 43.564453 L 55.488281 43.570312 C 55.49962 43.581273 55.512038 43.604274 55.533203 43.615234 C 55.535924 43.618874 55.539189 43.616041 55.542969 43.619141 L 55.566406 43.619141 C 55.543729 43.596841 55.522299 43.586337 55.5 43.564453 z M 121.35352 52.738281 L 106.79688 52.740234 L 106.79688 55.796875 L 119.49414 55.796875 C 119.85244 54.706447 120.41663 53.685909 121.21094 52.859375 A 2.8528696 2.8528696 0 0 1 121.25391 52.814453 C 121.28792 52.781571 121.32063 52.771163 121.35352 52.738281 z M 170.07227 52.738281 L 152.93164 52.740234 L 152.93164 54.382812 C 153.70648 54.284167 154.47831 54.189453 155.30859 54.189453 C 157.37229 54.189453 159.38148 54.568384 161.26172 55.310547 C 161.62569 55.454093 161.97774 55.625878 162.32617 55.796875 L 170.07227 55.796875 L 170.07227 52.738281 z M 229.41797 52.738281 L 223.27344 52.740234 C 223.48509 53.074496 223.6901 53.413128 223.86328 53.771484 C 224.18341 54.414783 224.41585 55.096898 224.60547 55.798828 L 240.49609 55.798828 L 240.97656 54.767578 L 232.19336 54.767578 A 2.8528696 2.8528696 0 0 1 229.78711 53.441406 C 229.64273 53.214559 229.53551 52.973905 229.41797 52.738281 z M 43.810547 52.740234 C 43.681287 52.877204 43.401739 53.138514 43.335938 53.220703 C 43.226709 53.356615 43.281296 53.285683 43.189453 53.40625 C 43.186618 53.461015 43.165319 53.779434 43.144531 53.876953 C 43.121854 53.986559 43.110631 54.047616 43.089844 54.103516 C 43.055828 54.214218 43.036351 54.277983 43.025391 54.326172 C 42.991375 54.424818 42.969187 54.467838 42.947266 54.511719 C 42.91325 54.599366 42.892257 54.655796 42.859375 54.722656 C 42.793611 54.857434 42.726357 55.011675 42.638672 55.191406 C 42.561947 55.356836 42.434142 55.597187 42.333984 55.798828 L 51.191406 55.798828 C 51.555375 55.078817 51.944461 54.447282 52.4375 53.962891 A 2.8528696 2.8528696 0 0 0 52.4375 53.957031 C 52.414823 53.97933 52.734163 53.547145 52.611328 53.759766 C 52.832053 53.379488 53.123387 53.073385 53.388672 52.740234 L 43.810547 52.740234 z M 69.726562 52.740234 C 69.792326 52.816959 69.840056 52.880229 69.962891 53.119141 C 70.006355 53.195865 70.051987 53.287537 70.099609 53.417969 C 70.143452 53.5484 70.246094 53.955939 70.246094 53.957031 C 70.246321 53.958343 70.234375 54.969611 70.234375 54.970703 C 70.234262 54.971251 70.01585 55.393342 69.804688 55.798828 L 73.212891 55.798828 C 73.097615 55.426242 73.078125 55.120095 73.078125 54.716797 C 73.078125 55.185848 72.89839 53.779725 72.646484 53.023438 C 72.612469 52.93579 72.559092 52.830036 72.527344 52.740234 L 69.726562 52.740234 z M 83.822266 52.740234 C 83.822266 52.750439 83.822379 52.745845 83.822266 52.761719 C 83.821396 52.838405 83.818671 52.942312 83.798828 53.068359 C 83.78749 53.194407 83.701172 53.56531 83.701172 53.566406 C 83.700794 53.567619 83.292969 54.403197 83.292969 54.404297 C 83.292742 54.404622 82.966975 54.663477 82.642578 54.919922 C 82.619901 55.045969 82.597656 55.196132 82.597656 55.197266 C 82.597543 55.197598 82.564951 55.295947 82.533203 55.384766 C 82.55588 55.52835 82.598736 55.664657 82.642578 55.802734 L 91.646484 55.802734 L 91.646484 52.744141 L 83.822266 52.740234 z M 132.44727 52.740234 C 132.49111 52.784077 132.53384 52.805729 132.57617 52.849609 C 133.39368 53.673728 133.98145 54.700513 134.35547 55.798828 L 138.05859 55.798828 L 138.05859 52.742188 L 132.44727 52.740234 z M 184.94531 52.740234 L 184.94531 55.796875 L 196.13672 55.796875 C 196.03807 55.310291 195.96484 54.817642 195.96484 54.320312 C 195.96484 53.797566 196.03159 53.266054 196.14648 52.740234 L 184.94531 52.740234 z M 259.17383 52.740234 C 259.0971 52.921085 259.064 53.112596 258.98047 53.289062 C 258.58041 54.157023 258.01632 54.953594 257.43359 55.740234 L 257.42578 55.763672 L 257.4043 55.806641 L 264.26758 55.806641 L 264.26758 52.748047 L 259.17383 52.740234 z M 278.72266 52.740234 C 278.94414 53.507373 279.07422 54.281826 279.07422 55.089844 L 279.07422 55.796875 L 281.91602 55.796875 L 281.91602 52.740234 L 278.72266 52.740234 z M 308.64844 52.740234 C 309.20512 53.348466 309.76772 53.955145 310.3125 54.5625 L 310.34766 54.607422 C 310.73007 55.019481 311.07995 55.40229 311.45117 55.802734 L 321.29492 55.802734 A 25.968809 25.968809 0 0 1 319.25781 52.742188 L 308.64844 52.740234 z M 60.255859 64.908203 L 57.720703 64.914062 C 57.889648 65.272437 58.043591 65.634022 58.269531 65.972656 C 58.303547 66.027422 59.103501 66.772024 59.757812 67.386719 C 59.71397 67.186139 59.548828 66.904369 59.548828 66.787109 C 59.548828 66.783473 59.874685 65.454131 59.876953 65.451172 C 59.877898 65.449528 60.097237 65.091434 60.212891 64.951172 C 60.224229 64.940211 60.234694 64.929746 60.255859 64.908203 z M 49.818359 64.912109 L 40.53125 64.914062 C 40.530607 64.968828 40.521484 65.038947 40.521484 65.09375 C 40.513925 66.011026 40.608995 66.867036 40.597656 66.826172 A 2.8528696 2.8528696 0 0 0 40.597656 66.832031 C 40.631672 66.972327 40.893794 67.535724 40.662109 67.126953 C 40.750172 67.282556 40.892539 67.599191 41.019531 67.970703 L 49.152344 67.970703 C 49.186359 67.777796 49.175985 67.602348 49.251953 67.371094 C 49.328678 67.149727 49.422498 66.900669 49.720703 66.521484 C 49.835601 66.375746 50.050913 66.190343 50.283203 66.011719 C 50.166416 65.633619 49.958731 65.28417 49.818359 64.912109 z M 119.69922 64.912109 L 106.79688 64.914062 L 106.79688 67.970703 L 119.5 67.970703 L 119.5 65.949219 A 2.8528696 2.8528696 0 0 1 119.69922 64.912109 z M 236.25977 64.912109 L 227.77148 64.914062 C 228.19778 65.586951 228.49414 66.338896 228.49414 67.224609 L 228.49414 67.970703 L 234.83203 67.970703 L 236.25977 64.912109 z M 282.26172 64.912109 L 279.07422 64.914062 L 279.07422 67.970703 L 284.1543 67.970703 C 283.36744 67.309872 282.76162 66.452748 282.42188 65.546875 C 282.34515 65.337527 282.32181 65.122523 282.26172 64.912109 z M 71.214844 64.914062 A 2.8528696 2.8528696 0 0 1 70.865234 65.916016 L 70.689453 66.216797 A 2.8528696 2.8528696 0 0 1 70.681641 66.226562 C 70.862302 66.069825 70.900266 66.059958 71.107422 65.876953 C 71.486622 65.541596 71.519955 65.496872 71.560547 65.462891 C 71.594563 65.313864 71.603516 65.109124 71.603516 64.914062 L 71.214844 64.914062 z M 80.859375 64.914062 C 80.760729 65.262573 80.655458 65.610232 80.462891 66.017578 A 2.8528696 2.8528696 0 0 0 80.455078 66.017578 C 80.318259 66.305805 80.185593 66.626805 80.09375 66.861328 C 80.050285 66.978607 80.016062 67.138317 79.994141 67.195312 L 79.960938 67.365234 A 2.8528696 2.8528696 0 0 1 79.791016 67.970703 L 91.642578 67.970703 L 91.642578 64.914062 L 80.859375 64.914062 z M 132.76953 64.914062 C 133.17284 65.412703 133.51726 65.949865 133.74414 66.521484 C 133.95655 66.999307 134.0917 67.480941 134.19141 67.970703 L 138.05859 67.970703 L 138.05859 64.914062 L 132.76953 64.914062 z M 170.10156 64.914062 C 170.41489 65.888326 170.63657 66.909208 170.78125 67.970703 L 171.98828 67.970703 C 171.44913 67.432612 170.98042 66.831913 170.66797 66.164062 A 2.8528696 2.8528696 0 0 1 170.58008 65.960938 C 170.4512 65.616812 170.38891 65.26585 170.31445 64.914062 L 170.10156 64.914062 z M 184.94531 64.914062 L 184.94531 66.578125 A 2.8528696 2.8528696 0 0 1 184.57617 67.970703 L 190.93164 67.970703 L 190.93164 67.224609 C 190.93164 66.399391 191.13812 65.619935 191.48047 64.914062 L 184.94531 64.914062 z M 253.2207 64.914062 L 251.81641 67.970703 L 264.27539 67.970703 L 264.27539 64.914062 L 253.2207 64.914062 z M 297.11133 64.914062 L 297.11133 66.271484 A 2.8528696 2.8528696 0 0 1 296.54492 67.970703 L 302.66797 67.970703 C 301.62459 67.116991 300.6362 66.147855 299.69922 65.054688 L 299.58008 64.914062 L 297.11133 64.914062 z M 315.61914 64.914062 C 315.5753 65.031341 315.55405 65.154445 315.5 65.269531 L 315.5 65.275391 C 315.05288 66.224445 314.39455 67.065553 313.61328 67.744141 C 313.51464 67.831788 313.40573 67.891548 313.30859 67.972656 L 343.91797 67.972656 L 344.09375 67.972656 L 344.09375 65.798828 A 25.968809 25.968809 0 0 1 341.84375 65.894531 A 25.968809 25.968809 0 0 1 334.77344 64.914062 L 315.61914 64.914062 z M 67.972656 67.830078 C 67.969426 67.832904 67.966317 67.83496 67.962891 67.837891 C 67.967438 67.837627 67.972021 67.83611 67.976562 67.835938 L 67.972656 67.830078 z M 67.962891 67.837891 C 67.787686 67.848063 67.60822 67.921684 67.460938 67.900391 A 2.8528696 2.8528696 0 0 1 67.417969 67.966797 L 67.808594 67.966797 C 67.829943 67.945803 67.907789 67.885019 67.962891 67.837891 z M 265.25391 77.085938 L 247.62695 77.089844 L 246.86719 78.742188 L 256.22266 78.742188 A 2.8528696 2.8528696 0 0 1 258.62891 80.068359 C 258.65158 80.090659 258.65266 80.12261 258.67383 80.144531 L 271.5625 80.144531 C 270.87432 80.122232 270.19094 80.099841 269.54688 79.990234 A 2.8528696 2.8528696 0 0 1 269.51172 79.986328 C 268.52435 79.812054 267.56042 79.419057 266.75391 78.814453 C 266.14124 78.354171 265.65767 77.741398 265.25391 77.085938 z M 67.380859 77.087891 C 67.3733 77.093182 67.357422 77.09999 67.357422 77.111328 C 67.024445 77.340367 66.892608 77.373269 66.785156 77.416016 C 66.356633 77.58806 66.356482 77.555286 66.248047 77.585938 C 64.786504 77.99252 63.733661 77.986441 62.357422 77.796875 C 61.474108 77.67525 60.734275 77.402798 60.074219 77.09375 L 45.265625 77.089844 C 45.242948 77.264118 45.222772 77.430066 45.167969 77.677734 C 45.281733 77.831183 45.363378 77.807679 45.541016 78.380859 C 45.575031 78.500292 45.475748 78.726871 45.498047 78.894531 C 45.607275 79.01729 45.685954 79.053609 45.837891 79.314453 C 45.925576 79.464576 46.003983 79.813327 46.076172 80.146484 L 93.476562 80.146484 C 92.735737 79.262082 92.227064 78.215138 91.947266 77.087891 L 67.380859 77.087891 z M 230.58984 77.087891 L 221.98242 77.089844 C 221.67893 77.316729 221.37757 77.548833 221.04883 77.746094 C 218.64989 79.185459 215.71359 79.908015 212.30469 80.146484 L 228.7168 80.146484 C 229.16614 79.276339 229.72248 78.477404 230.30664 77.701172 L 230.58984 77.087891 z M 134.37305 77.089844 L 134.37305 80.146484 L 138.52344 80.146484 C 138.25093 79.357425 138.05859 78.542608 138.05859 77.701172 L 138.05859 77.089844 L 134.37305 77.089844 z M 170.08008 77.089844 C 169.9614 77.452565 169.84719 77.816424 169.70508 78.166016 C 169.43031 78.859733 169.09514 79.514123 168.73242 80.148438 L 207.50195 80.148438 C 206.2473 80.06079 205.02937 79.907791 203.88867 79.642578 A 2.8528696 2.8528696 0 0 1 203.86719 79.638672 C 202.09202 79.215758 200.47009 78.557271 199.04688 77.638672 A 2.8528696 2.8528696 0 0 1 199.01367 77.617188 C 198.76914 77.453912 198.54068 77.27066 198.31055 77.089844 L 170.08008 77.089844 z M 279.0625 77.089844 A 2.8528696 2.8528696 0 0 1 276.73047 79.666016 C 276.28554 79.742702 275.69625 79.827098 274.98438 79.925781 C 274.21615 80.072654 273.42756 80.123266 272.63477 80.148438 L 343.91797 80.148438 L 344.09375 80.148438 L 344.09375 77.089844 L 343.91797 77.089844 L 279.0625 77.089844 z M 119.5 77.955078 C 119.34504 78.69263 119.28364 79.458122 119.00781 80.148438 L 119.5 80.148438 L 119.5 77.955078 z M 55.822266 89.265625 C 55.940187 89.379616 56.06816 89.479879 56.214844 89.628906 L 56.220703 89.632812 C 57.640785 91.06692 57.019503 90.737308 59.800781 91.230469 C 60.1776 91.296233 60.554369 91.367212 60.871094 91.429688 C 61.183283 91.495451 61.224456 91.472446 61.744141 91.626953 L 61.755859 91.632812 C 61.854505 91.665694 61.92915 91.676687 62.220703 91.802734 C 62.297428 91.835616 62.39103 91.878771 62.53125 91.960938 C 62.597014 92.00478 62.681975 92.059994 62.785156 92.136719 C 62.839959 92.180561 62.907967 92.245541 62.994141 92.322266 L 120.7207 92.322266 C 120.48826 91.995714 120.26422 91.663669 120.09766 91.308594 A 2.8528696 2.8528696 0 0 1 120.00781 91.105469 C 119.78217 90.503817 119.66835 89.891507 119.5957 89.265625 L 55.822266 89.265625 z M 134.37305 89.265625 L 134.37305 91.722656 A 2.8528696 2.8528696 0 0 1 134.30664 92.324219 L 343.91992 92.324219 L 344.0957 92.324219 L 344.0957 89.265625 L 343.91992 89.265625 L 259.1582 89.265625 C 258.91291 89.677684 258.61796 90.069869 258.25195 90.421875 C 257.09122 91.563591 255.42181 92.160156 253.85156 92.160156 L 232.60938 92.160156 A 2.8528696 2.8528696 0 0 1 230.79688 91.507812 C 230.04728 90.890816 229.47329 90.10564 228.98438 89.265625 L 134.37305 89.265625 z "
       transform="matrix(0.26458333,0,0,0.26458333,157.15179,-41.241344)" />
    <path
       style="fill:#ffffff;fill-opacity:1;stroke:none;stroke-width:0.19603141;stroke-miterlimit:4;stroke-dasharray:none;stroke-opacity:1"
       d="m 233.65283,-35.862873 c -0.20935,0 -0.42804,0.02029 -0.65628,0.05683 -0.22821,0.029 -0.39435,0.05162 -0.49896,0.0719 v 10.971299 c 0,0.247336 0.029,0.447146 0.0855,0.599374 0.0572,0.152228 0.14207,0.271112 0.25632,0.356622 0.11425,0.08554 0.25197,0.141789 0.41354,0.170783 0.17108,0.03683 0.36715,0.05539 0.58589,0.05539 0.21863,0 0.44152,-0.0116 0.66978,-0.04204 0.22821,-0.029 0.39434,-0.05509 0.49896,-0.0838 v -3.153971 l 2.01237,2.34052 c 0.2282,0.266183 0.46598,0.498468 0.71324,0.698251 0.24734,0.190213 0.56602,0.28474 0.956,0.28474 0.18064,0 0.35077,-0.029 0.51244,-0.0838 0.16151,-0.05712 0.3049,-0.14353 0.42854,-0.257774 0.13309,-0.114244 0.23863,-0.251683 0.31466,-0.413568 0.0763,-0.161797 0.11395,-0.346559 0.11395,-0.555909 -0.19021,-0.199783 -0.40504,-0.423949 -0.64281,-0.671284 -0.22819,-0.247335 -0.46596,-0.503978 -0.71325,-0.77016 -0.24733,-0.275752 -0.4984,-0.551387 -0.7552,-0.827138 -0.25689,-0.27575 -0.50393,-0.547442 -0.7417,-0.813625 l -1.70218,-1.799572 3.48528,-3.422356 c 0.27576,-0.275752 0.47573,-0.523086 0.59937,-0.741716 0.12352,-0.21863 0.18441,-0.450944 0.18441,-0.69825 0,-0.332873 -0.14179,-0.619323 -0.42705,-0.857089 -0.27574,-0.247337 -0.73779,-0.370108 -1.38451,-0.370108 l -2.96684,3.408846 v -2.268581 c 0,-0.247334 -0.0289,-0.445608 -0.0855,-0.597866 -0.0572,-0.152227 -0.14354,-0.272561 -0.25778,-0.3581 -0.11425,-0.08553 -0.25575,-0.141788 -0.42705,-0.170785 -0.1618,-0.03683 -0.35215,-0.05683 -0.57091,-0.05683 z m -50.34038,3.841928 c -0.20935,0 -0.42656,0.0203 -0.65482,0.05683 -0.22819,0.029 -0.39585,0.05017 -0.50046,0.07045 v 10.476827 c 0,0.408988 0.11887,0.731713 0.35662,0.969479 0.23776,0.237766 0.56199,0.356621 0.97096,0.356621 h 3.82243 c 0.26618,0 0.48113,-0.07539 0.6428,-0.227908 0.16182,-0.161797 0.24271,-0.43317 0.24271,-0.813625 0,-0.190214 -0.0289,-0.371351 -0.0853,-0.542427 -0.0572,-0.180644 -0.11917,-0.322376 -0.18586,-0.427051 h -3.26801 v -8.735705 c 0,-0.247335 -0.029,-0.447118 -0.0855,-0.599345 -0.0571,-0.152229 -0.14208,-0.271112 -0.25632,-0.356621 -0.11425,-0.08554 -0.25748,-0.141789 -0.42853,-0.170786 -0.16181,-0.03683 -0.35217,-0.05682 -0.5709,-0.05682 z m -11.07024,0.313155 c -0.0404,0.0059 -0.19977,0.04031 -0.35212,0.06901 -0.21429,0.04001 -0.28821,0.04291 -0.32814,0.02319 -0.0438,-0.02319 -0.12497,0.0029 -0.53793,0.181225 -0.26764,0.115113 -0.63117,0.279519 -0.80914,0.367116 -0.33412,0.164406 -0.84778,0.489103 -0.95147,0.600854 -0.0714,0.07684 -0.0927,0.07713 -0.11395,0.0116 -0.0145,-0.04552 -0.0377,-0.029 -0.21573,0.14237 -0.10933,0.104676 -0.33409,0.317621 -0.50348,0.474983 -0.32662,0.303442 -0.52941,0.549588 -0.59486,0.719242 -0.0232,0.05683 -0.0553,0.101776 -0.0734,0.101776 -0.0365,-3e-5 -0.16324,0.252554 -0.32217,0.629327 -0.11075,0.262702 -0.21601,0.397069 -0.30715,0.397069 -0.0476,0 -0.0751,0.04291 -0.20384,0.334149 -0.29273,0.663136 -0.60491,1.594339 -0.5709,1.703683 0.0115,0.03537 0.0203,0.644057 0.0232,1.353065 0.002,1.393194 0.0115,1.557863 0.14673,2.208646 0.30686,1.465656 1.07852,2.904201 2.15771,4.021732 0.92099,0.953762 1.88787,1.573752 2.9848,1.913469 0.40949,0.126711 0.61291,0.163535 1.09233,0.187312 0.19399,0.0087 0.4042,0.0174 0.46451,0.0174 0.10265,0.0014 0.10904,-0.0023 0.0407,-0.02319 -0.0401,-0.0116 -0.23371,-0.05017 -0.42554,-0.0838 -0.76767,-0.13599 -0.93605,-0.214569 -1.35308,-0.635328 -0.16701,-0.169337 -0.22674,-0.213701 -0.19775,-0.157449 0.0232,0.0493 0.0289,0.078 0.0115,0.078 -0.0592,0 -0.28616,-0.113375 -0.44652,-0.220369 -0.0937,-0.06263 -0.2195,-0.128742 -0.28329,-0.152809 -0.0634,-0.02319 -0.12004,-0.05481 -0.11975,-0.06293 8e-5,-0.0087 0.0261,-0.04494 0.0568,-0.08379 l 0.0568,-0.06901 -0.13628,-0.07337 c -0.13077,-0.06524 -0.46451,-0.372655 -0.46451,-0.430035 0,-0.0116 -0.0545,-0.02609 -0.12441,-0.029 -0.12554,-0.0059 -0.13134,-0.01449 -0.24878,-0.169337 -0.12845,-0.170786 -0.25342,-0.420556 -0.25488,-0.498961 -7.3e-4,-0.04814 -0.006,-0.04668 -0.0407,0 -0.042,0.05539 -0.0261,0.07016 -0.25458,-0.242697 -0.36307,-0.494727 -0.47653,-0.698307 -0.41357,-0.737219 0.0174,-0.0116 -0.002,-0.0429 -0.0511,-0.08988 -0.0412,-0.03944 -0.0969,-0.108154 -0.12439,-0.152809 -0.0502,-0.0812 -0.0483,-0.08207 0,-0.13048 0.0483,-0.04843 0.0464,-0.04785 -0.0629,-0.209931 -0.1186,-0.175715 -0.25546,-0.46144 -0.28155,-0.578382 l -0.0174,-0.06756 0.096,0.08524 c 0.0511,0.04871 0.11278,0.103226 0.14237,0.118304 0.0533,0.02609 0.0545,0.02319 0.0174,-0.06901 -0.17194,-0.412263 -0.31919,-0.597256 -0.49745,-0.623354 -0.1934,-0.029 -0.27459,-0.130481 -0.41958,-0.51543 -0.0721,-0.190793 -0.073,-0.203842 -0.0233,-0.203842 0.0203,0 0.0337,-0.0059 0.0289,-0.0174 -0.14325,-0.28184 -0.1473,-0.29973 -0.13048,-0.504964 0.0145,-0.184703 0.006,-0.207901 -0.0511,-0.311677 -0.0345,-0.06147 -0.0748,-0.189633 -0.096,-0.287639 -0.0547,-0.251974 -0.0514,-0.912269 0.0116,-1.495406 0.0261,-0.254293 0.0586,-0.587892 0.0734,-0.741715 0.0145,-0.153967 0.0478,-0.336178 0.069,-0.403072 0.0203,-0.06697 0.14557,-0.329828 0.2772,-0.588877 0.13193,-0.258934 0.23834,-0.479622 0.23834,-0.491451 0,-0.0116 -0.0203,-0.02319 -0.0463,-0.02319 -0.1157,0 -0.0718,-0.08554 0.25023,-0.486986 0.22849,-0.284739 0.83438,-0.869849 1.07588,-1.041389 0.25429,-0.180643 0.48388,-0.295207 0.59934,-0.295207 0.057,0 0.10094,-0.02319 0.14236,-0.06756 0.052,-0.05712 0.0537,-0.06205 0.0116,-0.04494 -0.0899,0.03537 -0.15744,0.04263 -0.15744,0.0174 0,-0.03856 0.29024,-0.278941 0.44654,-0.373091 0.1499,-0.09018 0.25574,-0.122361 0.57837,-0.164695 0.13107,-0.0174 0.22704,-0.04408 0.26531,-0.07337 0.0601,-0.04611 0.0597,-0.04726 -0.0733,-0.0116 -0.16993,0.04494 -0.20154,0.04611 -0.19197,0 0.006,-0.02319 0.0884,-0.0664 0.20384,-0.106415 0.10701,-0.03712 0.30238,-0.127292 0.43605,-0.203842 0.13367,-0.07655 0.31457,-0.160057 0.40156,-0.187313 0.20529,-0.06408 0.56678,-0.113664 0.57838,-0.07946 0.006,0.0174 0.0787,0.0116 0.22038,-0.0116 0.30138,-0.049 1.0446,-0.02609 1.404,0.04031 0.80481,0.151357 1.35141,0.419598 1.92095,0.9515 0.5254,0.490668 0.99117,1.205445 1.20023,1.834047 0.084,0.252554 0.15281,0.552228 0.15281,0.686247 0,0.05104 0.0145,0.122363 0.0346,0.152807 0.0348,0.049 0.0386,0.138601 0.0261,0.752212 -0.006,0.38379 -0.0174,0.730059 -0.0261,0.77019 -0.0174,0.06989 -0.0203,0.07133 0.0174,0.02319 0.0373,-0.04726 0.0382,-0.0493 0.0388,0.02319 7.4e-4,0.154839 -0.0547,0.397621 -0.15281,0.662294 -0.10177,0.274593 -0.0994,0.274303 -0.21428,0.328177 -0.0948,0.04437 -0.12005,0.07307 -0.1528,0.158898 -0.0233,0.06263 -0.0311,0.130771 -0.0233,0.169335 0.0328,0.130772 -0.0261,0.214571 -0.32365,0.47649 -0.5292,0.467965 -0.76236,0.635532 -0.81514,0.582875 -0.0203,-0.02029 -0.0116,-0.04523 0.0232,-0.08554 0.0261,-0.03044 -0.0115,-0.0029 -0.0794,0.05683 -0.067,0.0606 -0.15629,0.139178 -0.20384,0.175424 -0.10003,0.07568 -0.40111,0.194272 -0.45853,0.181224 -0.0203,-0.0059 -0.091,0.0116 -0.15279,0.03451 -0.60049,0.228199 -1.36568,0.121783 -2.01087,-0.2772 -0.24328,-0.150489 -0.6772,-0.563709 -0.8271,-0.788166 -0.24068,-0.359955 -0.39811,-0.766216 -0.44654,-1.159778 -0.0203,-0.173686 -0.0368,-0.225298 -0.0629,-0.21573 -0.0261,0.0087 -0.0289,-0.03537 -0.0289,-0.20993 0,-0.754503 0.38656,-1.481024 1.00841,-1.89697 0.61583,-0.411886 1.41489,-0.481013 2.08429,-0.220369 -0.45482,-0.27894 -0.91027,-0.515807 -1.42796,-0.425543 -0.54999,0.09597 -1.10593,0.449582 -1.34108,0.855582 -0.0359,0.06234 -0.11425,0.158896 -0.1708,0.214279 -0.12092,0.118883 -0.19659,0.257194 -0.34011,0.63533 -0.058,0.153098 -0.12352,0.302339 -0.14672,0.328146 -0.0626,0.06989 -0.0777,0.865122 -0.0233,1.183758 0.12701,0.72858 0.50321,1.273325 1.33057,1.937419 0.16267,0.13077 0.29988,0.253134 0.30567,0.271111 0.0145,0.04088 0.37892,0.158898 0.71475,0.232257 0.34164,0.07423 1.18626,0.07974 1.50591,0.0116 0.33522,-0.0722 0.58041,-0.158318 0.88856,-0.310169 0.37688,-0.185862 0.67338,-0.399099 1.06536,-0.770159 0.17398,-0.164407 0.32255,-0.295208 0.33415,-0.295208 0.0115,0 0.0145,0.0087 0.0174,0.01741 0,-0.0014 4.6e-4,-0.0029 0,-0.0059 0.003,-0.02611 0.009,-0.04523 0.0116,-0.0748 0.003,-0.119465 0.0203,-0.170787 0.0898,-0.28764 0.0467,-0.07887 0.0934,-0.148169 0.10788,-0.152809 0.0145,-0.0059 0.0519,0.03045 0.0855,0.07946 l 0.0615,0.08988 0.0174,-0.113954 c 0.009,-0.06293 0.0887,-0.262994 0.17542,-0.446537 0.18616,-0.39478 0.23836,-0.552633 0.23836,-0.741715 0,-0.111055 0.009,-0.144399 0.045,-0.170786 0.035,-0.02319 0.0511,-0.06582 0.0568,-0.163246 l 0.006,-0.135991 0.0511,0.107864 0.0511,0.107865 0.0289,-0.170785 c 0.0145,-0.09395 0.0667,-0.277493 0.11396,-0.407568 0.0748,-0.20703 0.0823,-0.236026 0.045,-0.232258 -0.0232,0.0023 -0.0588,0.0014 -0.0734,0 -0.0817,-0.0087 -0.12091,-0.470311 -0.045,-0.525955 0.0261,-0.0203 0.029,-0.03566 0.0116,-0.04639 -0.0511,-0.0316 -0.1563,-0.28155 -0.20384,-0.480984 -0.0261,-0.108734 0.0458,-0.0812 0.11976,0.04494 0.0357,0.0609 0.0676,0.106416 0.0734,0.101776 0.006,-0.0059 -0.0174,-0.119174 -0.0511,-0.259223 -0.0337,-0.14005 -0.0564,-0.28648 -0.0568,-0.323652 -2.7e-4,-0.0374 -0.0233,-0.115404 -0.0511,-0.169336 -0.0412,-0.08033 -0.0564,-0.09279 -0.0855,-0.06901 -0.0203,0.01449 -0.0531,0.02609 -0.0734,0.0174 -0.0458,-0.0174 -0.11048,-0.258354 -0.10179,-0.362623 0.006,-0.07597 0.0116,-0.07973 0.12441,-0.09134 0.0887,-0.0087 0.12467,-0.02609 0.13627,-0.06147 0.0145,-0.04234 0.0233,-0.03509 0.0674,0.02987 0.0742,0.104965 0.2195,0.40426 0.31168,0.639823 0.0942,0.240377 0.11163,0.233418 0.029,-0.0116 -0.0588,-0.172524 -0.11367,-0.668268 -0.0734,-0.668268 0.0116,0 0.0365,0.0116 0.0511,0.029 0.0432,0.0432 0.0373,0.0174 -0.045,-0.191664 -0.22647,-0.573293 -0.63258,-1.154195 -1.16721,-1.670729 -0.26241,-0.253424 -0.66815,-0.571857 -0.8781,-0.69074 l -0.10785,-0.06292 0.069,0.07945 c 0.13134,0.155998 0.0768,0.158898 -0.14673,0.0059 -0.15889,-0.108445 -0.23747,-0.184994 -0.26068,-0.260673 -0.029,-0.09569 -0.24906,-0.141501 -0.442,-0.09134 -0.19051,0.04959 -0.26125,0.04031 -0.43005,-0.04494 -0.28066,-0.14179 -0.52516,-0.234866 -0.92302,-0.356621 -0.21776,-0.06669 -0.41592,-0.131061 -0.44201,-0.14092 -0.041,-0.01449 -0.043,-0.0087 -0.0289,0.05104 0.0174,0.06438 0.0145,0.06582 -0.0511,0.05104 -0.18267,-0.04147 -0.34949,-0.03886 -0.56638,0 -0.35293,0.06321 -0.63605,0.029 -0.40756,-0.05104 0.0707,-0.02319 0.0547,-0.02956 -0.18122,-0.0464 -0.14441,-0.0087 -0.3218,-0.01449 -0.3911,-0.0059 -0.14846,0.0203 -0.14671,0.01449 0.0568,-0.09743 0.11511,-0.0635 0.13976,-0.08263 0.0855,-0.07337 z m 0.75822,0.09134 c -0.0524,0.0014 -0.0527,0.0029 -0.006,0.02319 0.0673,0.029 0.0907,0.029 0.0733,0 -0.009,-0.01449 -0.038,-0.02319 -0.0673,-0.02319 z m 56.03132,0.665311 c -0.3961,0 -0.71675,0.123522 -0.96196,0.368597 -0.23574,0.245304 -0.35364,0.546629 -0.35364,0.905047 0,0.358389 0.11773,0.659802 0.35364,0.90502 0.24531,0.245306 0.56586,0.368626 0.96196,0.368626 0.39616,0 0.71272,-0.123524 0.94849,-0.368626 0.24531,-0.245305 0.36712,-0.546631 0.36712,-0.90502 0,-0.358418 -0.12179,-0.659802 -0.36712,-0.905047 -0.23574,-0.245308 -0.55233,-0.368597 -0.94849,-0.368597 z m -22.74576,0.206741 c -0.27576,0 -0.55131,0.02319 -0.82715,0.0719 -0.27575,0.03799 -0.54184,0.09453 -0.79863,0.170787 -0.2569,0.07626 -0.49997,0.166725 -0.72823,0.271111 -0.21863,0.09511 -0.40375,0.204421 -0.55591,0.328147 -0.15223,0.123811 -0.27112,0.265311 -0.35662,0.42705 -0.0763,0.152229 -0.11396,0.338615 -0.11396,0.55739 v 4.279446 c 0,0.237767 0.029,0.432271 0.0855,0.584384 0.0667,0.14266 0.15717,0.257483 0.27112,0.343136 0.11425,0.08554 0.25198,0.142081 0.41358,0.170786 0.17107,0.029 0.36166,0.04349 0.5709,0.04349 0.21862,0 0.42809,-0.01449 0.62781,-0.04349 0.20935,-0.029 0.36043,-0.05712 0.45553,-0.08554 v -4.863802 c 0.12352,-0.05712 0.27082,-0.105835 0.44201,-0.143819 0.18064,-0.04755 0.37117,-0.08931 0.57089,-0.127292 0.1998,-0.03769 0.40511,-0.06582 0.61434,-0.08524 0.20936,-0.02029 0.41314,-0.02987 0.61287,-0.02987 0.0571,-0.104675 0.10439,-0.218049 0.14235,-0.34163 0.038,-0.133092 0.0569,-0.266762 0.0569,-0.400056 0,-0.39939 -0.13224,-0.684361 -0.39859,-0.855611 -0.26618,-0.180645 -0.62832,-0.271112 -1.08483,-0.271112 z m -10.75255,0.184413 c -0.21864,0 -0.43211,0.02029 -0.64134,0.05682 -0.20936,0.029 -0.36189,0.05655 -0.457,0.08554 v 9.735141 c 0,0.466051 0.20934,0.845463 0.62782,1.140263 0.30436,0.218628 0.67433,0.399767 1.11181,0.542427 0.43753,0.152228 0.9711,0.227617 1.59882,0.227617 0.58017,0 1.10827,-0.07539 1.58379,-0.227617 0.48506,-0.161798 0.89283,-0.393909 1.2257,-0.69825 0.33291,-0.304342 0.59099,-0.68529 0.7717,-1.141771 0.1902,-0.466053 0.28474,-1.009088 0.28474,-1.62728 0,-0.599201 -0.0904,-1.125765 -0.27112,-1.582307 -0.18064,-0.45654 -0.42787,-0.83746 -0.74172,-1.141801 -0.31387,-0.31385 -0.67585,-0.551442 -1.08486,-0.713241 -0.40895,-0.161506 -0.84107,-0.242695 -1.29761,-0.242695 -0.25691,0 -0.49447,0.0203 -0.71324,0.05683 -0.20936,0.03799 -0.43351,0.105545 -0.67127,0.200941 v -3.53025 c 0,-0.237767 -0.029,-0.428241 -0.0856,-0.570901 -0.0571,-0.152228 -0.14209,-0.271112 -0.25632,-0.35662 -0.11425,-0.08554 -0.25748,-0.14179 -0.42852,-0.170786 -0.1618,-0.029 -0.34668,-0.04204 -0.55591,-0.04204 z m 23.68076,1.014421 c -0.26618,0 -0.4851,0.0809 -0.65628,0.242696 -0.16181,0.161798 -0.2427,0.42772 -0.2427,0.798634 0,0.199783 0.029,0.390257 0.0852,0.570901 0.0571,0.180644 0.11918,0.323856 0.18588,0.42853 h 3.50925 l -3.32945,7.153404 c -0.17108,0.209351 -0.31841,0.437433 -0.44204,0.684768 -0.12353,0.247334 -0.18587,0.490465 -0.18587,0.728232 0,0.294859 0.0528,0.555445 0.15745,0.783643 0.10468,0.228197 0.23835,0.409335 0.40008,0.542426 h 5.62052 c 0.26617,0 0.47964,-0.0809 0.64132,-0.242695 0.17108,-0.161797 0.25778,-0.427748 0.25778,-0.798664 0,-0.199782 -0.0289,-0.390226 -0.0855,-0.5709 -0.0571,-0.180645 -0.11917,-0.322348 -0.18586,-0.427023 h -3.6531 l 3.28749,-7.154883 c 0.17108,-0.20935 0.30896,-0.428125 0.41358,-0.656322 0.11424,-0.237766 0.17077,-0.475475 0.17077,-0.713242 0,-0.570638 -0.20934,-1.027121 -0.62785,-1.369533 z m -52.45465,1.089348 c -0.0454,7.41e-4 -0.073,0.04377 -0.10787,0.163245 -0.043,0.147881 -0.0145,0.1589 0.0734,0.02987 0.0524,-0.07742 0.0725,-0.192533 0.0345,-0.191663 z m 62.14485,0.660787 c -0.2076,0 -0.41434,0.0203 -0.62184,0.05683 -0.19806,0.029 -0.34877,0.05162 -0.45251,0.07046 v 5.758383 c 0,0.235736 0.0261,0.428994 0.0838,0.579886 0.0661,0.141501 0.15656,0.253714 0.26965,0.338647 0.1131,0.08496 0.24878,0.14237 0.40904,0.170785 0.16963,0.029 0.35892,0.04204 0.5664,0.04204 0.20764,0 0.41031,-0.0203 0.60838,-0.05682 0.20761,-0.029 0.36375,-0.05161 0.46746,-0.07045 v -5.758382 c 0,-0.235738 -0.0327,-0.423428 -0.0989,-0.564899 -0.0564,-0.150778 -0.14148,-0.270242 -0.25486,-0.355113 -0.11309,-0.08496 -0.25575,-0.140919 -0.42555,-0.169336 -0.16034,-0.029 -0.34391,-0.04204 -0.55141,-0.04204 z m -62.56887,0.576902 c -0.003,-0.01449 -0.0203,0.0029 -0.0464,0.05248 -0.0261,0.04668 -0.0443,0.128452 -0.045,0.181224 -0.002,0.127003 0.0331,0.08524 0.0673,-0.07945 0.0174,-0.08931 0.0289,-0.13889 0.0232,-0.154258 z m 24.40152,0.116853 c -0.39947,0 -0.72371,0.122944 -0.97099,0.370104 -0.23777,0.247336 -0.35661,0.552634 -0.35661,0.914039 0,0.361404 0.11887,0.665252 0.35661,0.91253 0.24733,0.247335 0.57152,0.371611 0.97099,0.371611 0.39945,0 0.71819,-0.124392 0.95597,-0.371611 0.24734,-0.247336 0.37009,-0.551126 0.37009,-0.91253 0,-0.361405 -0.12294,-0.666761 -0.37009,-0.914039 -0.23778,-0.247334 -0.55652,-0.370104 -0.95597,-0.370104 z m -16.19627,0.0261 c -0.0145,-0.0059 -0.0305,0.0116 -0.045,0.0059 0.0418,0.0261 0.089,0.0116 0.13047,0.03886 -0.0312,-0.01449 -0.058,-0.03363 -0.0853,-0.04494 z m 0.0852,0.04494 c 0.0829,0.03973 0.17397,0.08409 0.22617,0.118304 0.0719,0.04726 0.13511,0.08003 0.14091,0.0751 0.006,-0.0059 -0.0478,-0.05973 -0.11829,-0.119754 -0.0781,-0.0664 -0.16993,-0.01741 -0.24879,-0.07337 z m 0.96796,1.483433 c -0.009,-0.02319 -0.0232,-0.01449 -0.0511,0.02319 -0.0357,0.049 -0.0233,0.119462 0.0233,0.227617 0.0203,0.04378 0.0261,0.06118 0.0345,-0.07945 0.003,-0.09279 0.002,-0.148169 -0.006,-0.170786 z m -0.0289,0.251686 c -0.002,-5.9e-5 -0.002,0.01739 -0.006,0.0116 h 0.006 c -0.002,-0.0059 6.3e-4,-0.0059 0,-0.0116 z m 22.60494,0.92308 c 0.50685,0 0.90968,0.155708 1.20921,0.471998 0.29945,0.316115 0.44949,0.797416 0.44949,1.439967 0,0.632371 -0.14991,1.110687 -0.44949,1.436948 -0.28793,0.316114 -0.69579,0.475012 -1.22571,0.475012 -0.26503,0 -0.49145,-0.02319 -0.67577,-0.06147 -0.17283,-0.05104 -0.31984,-0.109894 -0.44651,-0.181225 v -3.336961 c 0.196,-0.08147 0.37212,-0.145849 0.5334,-0.184414 0.17281,-0.03944 0.37498,-0.06002 0.60538,-0.06002 z m -23.03499,-0.0464 c -0.0174,0 -0.15889,0.230227 -0.15889,0.256324 0,0.02319 0.0319,-0.02029 0.1183,-0.164697 0.0319,-0.05017 0.0463,-0.09134 0.0404,-0.09134 z m 0.11397,0.238347 -0.0913,0.06293 c -0.0516,0.03508 -0.1102,0.06118 -0.13049,0.06147 -0.0233,1.74e-4 -0.0115,0.01449 0.0232,0.03451 0.0699,0.03683 0.0893,0.029 0.15281,-0.07946 z m 15.35862,0.260673 c -0.20935,0 -0.41859,0.02029 -0.62781,0.05683 -0.19978,0.029 -0.35091,0.05248 -0.45553,0.0719 v 5.806312 c 0,0.237767 0.0289,0.432242 0.0852,0.584383 0.0667,0.142661 0.15716,0.257485 0.27112,0.343138 0.11425,0.08554 0.25197,0.14208 0.41356,0.170787 0.17108,0.029 0.36017,0.04203 0.56941,0.04203 0.20934,0 0.4146,-0.0174 0.61433,-0.05683 0.20934,-0.029 0.36589,-0.05104 0.47052,-0.07045 v -5.806313 c 0,-0.237766 -0.034,-0.428239 -0.10034,-0.5709 -0.0571,-0.152228 -0.14208,-0.270821 -0.25632,-0.356621 -0.11425,-0.08554 -0.25747,-0.14208 -0.42856,-0.170785 -0.16179,-0.029 -0.34664,-0.04349 -0.5559,-0.04349 z m -16.28313,0.311676 -0.15283,0.02319 c -0.0861,0.0116 -0.23716,0.01449 -0.33414,0.0059 -0.11453,-0.0087 -0.17541,-0.0059 -0.17541,0.0116 0,0.03653 0.0261,0.04611 0.22182,0.09743 0.0974,0.02609 0.18932,0.05045 0.20384,0.05104 0.0145,3.19e-4 0.0713,-0.04611 0.13047,-0.09743 z m -3.09723,0.271111 c -0.0145,-0.0087 -0.002,0.02611 0.0289,0.07946 0.0311,0.05421 0.0617,0.09597 0.0677,0.09134 0.0116,-0.0116 -0.0657,-0.152229 -0.096,-0.170785 z m -0.31764,0.158898 c -0.0115,-5.22e-4 -0.0233,0.029 -0.0233,0.06756 0,0.04814 0.0564,0.146719 0.17543,0.311649 0.0951,0.13193 0.19284,0.265022 0.22182,0.295207 0.0742,0.0812 0.076,0.07075 0.006,-0.04495 -0.0345,-0.05683 -0.12672,-0.225299 -0.20993,-0.368595 -0.0834,-0.143241 -0.16092,-0.260093 -0.17077,-0.260674 z m 6.29627,0.0087 c -0.003,0.0087 -0.006,0.01741 -0.0145,0.02319 -0.0145,0.0087 -0.0233,0.0493 -0.0233,0.08524 v 0.06147 l 0.0233,-0.06147 c 0.009,-0.01741 0.009,-0.06959 0.0145,-0.109314 z m -5.91119,0.263573 c -0.0644,-0.02609 0.21573,0.318694 0.40907,0.503457 0.0562,0.05393 0.15282,0.05132 0.21428,0.101775 -0.10612,-0.09018 -0.19369,-0.152228 -0.37913,-0.356621 -0.12148,-0.13367 -0.23254,-0.243565 -0.24412,-0.248785 z m 0.62332,0.605349 c 0.0514,0.04377 0.14847,0.158317 0.18124,0.175424 0.0969,0.05017 0.0994,0.03364 0.006,-0.04494 -0.0174,-0.01449 -0.0325,-0.03769 -0.0567,-0.06293 -0.0397,-0.03016 -0.0924,-0.03596 -0.1305,-0.06756 z m 0.13049,0.06756 c 0.12178,0.0925 0.27314,0.114244 0.40757,0.193403 -0.17543,-0.104676 -0.35398,-0.216021 -0.47499,-0.323652 -0.0666,-0.05944 -0.13047,-0.106416 -0.13627,-0.106416 -0.0174,0 0.11249,0.14237 0.20383,0.236608 z m 0.40757,0.193403 v 0.0014 c 0.002,0.0014 0.003,0.0014 0.006,0.0029 -0.002,-0.0014 -0.003,-0.0029 -0.006,-0.0059 z m 0.006,0.0059 c 0.0233,0.01449 0.039,0.03305 0.0629,0.0464 0.0481,0.02609 0.0345,0.0023 0.0553,0.0116 -0.0404,-0.02319 -0.0788,-0.03624 -0.11829,-0.05857 z m 0.1183,0.05857 c 0.002,6.09e-4 0.002,7.41e-4 0.006,0.0014 -0.002,-7.42e-4 -0.003,-0.0023 -0.006,-0.0029 z m 0.006,0.0014 c 0.14527,0.07887 0.28503,0.167886 0.42554,0.253134 -0.0934,-0.05307 -0.17687,-0.114824 -0.25313,-0.187314 -0.0711,-0.06843 -0.0913,-0.07946 -0.0913,-0.04495 0,0.02319 -0.0487,-0.0087 -0.0809,-0.0203 z m 0.44352,0.265312 c 0.23604,0.14266 0.47304,0.270821 0.72522,0.305672 0.20587,0.029 0.56108,0.0116 0.72373,-0.03451 0.11947,-0.03305 0.11454,-0.03074 -0.22037,-0.03305 -0.54897,-0.0029 -0.93563,-0.07713 -1.22866,-0.238347 z"
       id="path6379"
       inkscape:connector-curvature="0"
       sodipodi:nodetypes="sccscccscccccscccccccccccscccscccssccsssscscccscccsccccccccccccsccccccccccccsccccccscccccccccccccccccsccccccccssccsccscccccccccccccsccccccccccccccccccccsccccccccccccccscccccccccscccccccccccccccccccccccccscccccccccccccccccccccccccscccscscsscccccsscccsccccccccscsscccccscccscccsccscccsscscccccsccscscccccscscccccsccccccsccscccsccccsscscscscsccccccccccccccccsccscscsccccsccccssccccscsscccsccscccscccscccccccccsccccccccccccccccccccccccsccccccccccccccccccccccccccccscccccccc" />
    <rect
       style="opacity:1;fill:#e6e6e6;fill-opacity:1;stroke:none;stroke-width:0.14818121;stroke-linecap:round;stroke-linejoin:bevel;stroke-miterlimit:4;stroke-dasharray:none;stroke-dashoffset:0;stroke-opacity:1"
       id="rect6381"
       width="2.4944735"
       height="12.850319"
       x="157.27798"
       y="-30.31349" />
    <g
       transform="matrix(2.89959,0,0,2.89959,119.02939,-707.64712)"
       aria-label="LibraZiK"
       style="font-style:normal;font-variant:normal;font-weight:normal;font-stretch:normal;font-size:3.17499995px;line-height:1.39999998;font-family:'Baloo Bhaina';-inkscape-font-specification:'Baloo Bhaina';text-align:justify;text-decoration:none;text-decoration-line:none;text-decoration-color:#000000;text-anchor:start;opacity:1;fill:#ffffff;fill-opacity:1;stroke:none;stroke-width:0.1352132;stroke-linecap:round;stroke-linejoin:bevel;stroke-miterlimit:4;stroke-dasharray:none;stroke-dashoffset:0;stroke-opacity:1"
       id="g6385">
      <path
         d="m 32.271614,236.28676 q 0.0843,0 0.183435,-0.0156 0.104114,-0.0198 0.153682,-0.0497 v -0.39664 l -0.356956,0.0296 q -0.138816,0.0102 -0.228056,0.0596 -0.08924,0.0495 -0.08924,0.14865 0,0.0991 0.07435,0.1636 0.07932,0.0595 0.26276,0.0595 z m -0.03967,-1.94838 q 0.267718,0 0.485857,0.0545 0.223098,0.0545 0.376787,0.16856 0.158647,0.10911 0.242929,0.2826 0.0843,0.16856 0.0843,0.40157 v 1.11053 q 0,0.12883 -0.07437,0.21319 -0.06941,0.0793 -0.168563,0.13881 -0.322252,0.19334 -0.907263,0.19334 -0.262759,0 -0.475941,-0.0497 -0.208226,-0.0495 -0.361914,-0.14865 -0.148732,-0.0991 -0.233013,-0.25284 -0.07932,-0.15364 -0.07932,-0.35696 0,-0.34208 0.203267,-0.52551 0.203267,-0.18346 0.629631,-0.22806 l 0.649462,-0.0695 v -0.0348 q 0,-0.1438 -0.128901,-0.20325 -0.123935,-0.0645 -0.361914,-0.0645 -0.188392,0 -0.366871,0.0396 -0.178478,0.0397 -0.322252,0.0991 -0.06444,-0.0447 -0.109073,-0.13382 -0.04461,-0.0941 -0.04461,-0.19336 0,-0.12883 0.05949,-0.20325 0.06444,-0.0793 0.193351,-0.13383 0.143782,-0.0545 0.337125,-0.0793 0.19831,-0.0248 0.37183,-0.0248 z"
         style="fill:#ffffff;fill-opacity:1;stroke-width:0.13521318"
         id="path6383"
         inkscape:connector-curvature="0" />
    </g>
    <circle
       style="fill:none;fill-opacity:1;stroke:#e6e6e6;stroke-width:1.13538;stroke-linejoin:bevel;stroke-miterlimit:4;stroke-dasharray:none;stroke-opacity:1"
       id="path840-3"
       cx="248.15341"
       cy="-30.675377"
       r="6.870914" />
    <g
       aria-label="4"
       id="text2884"
       style="font-style:normal;font-variant:normal;font-weight:bold;font-stretch:normal;font-size:11.7024px;line-height:1.4;font-family:'Baloo Bhaina';-inkscape-font-specification:'Baloo Bhaina Bold';text-align:justify;text-decoration:none;text-decoration-line:none;text-decoration-color:#000000;text-anchor:start;opacity:1;fill:#ffffff;fill-opacity:1;stroke:none;stroke-width:0.198059;stroke-linecap:round;stroke-linejoin:bevel;stroke-miterlimit:4;stroke-dasharray:none;stroke-dashoffset:0;stroke-opacity:1"
       transform="translate(-0.38919046)">
      <path
         d="m 248.39626,-33.129568 -2.41133,3.571289 h 2.41133 z m -0.3657,-1.811358 h 2.44562 v 5.382647 h 1.2171 v 1.594224 h -1.2171 v 1.554225 h -2.07992 v -1.554225 h -3.78271 v -1.885641 z"
         style="font-style:normal;font-variant:normal;font-weight:bold;font-stretch:normal;font-family:'Baloo Bhaina';-inkscape-font-specification:'Baloo Bhaina Bold';fill:#ffffff;fill-opacity:1;stroke-width:0.198059"
         id="path841" />
    </g>
  </g>
  <g
     style="display:inline"
     transform="translate(-146.25339,-148.55099)"
     inkscape:label="Calque 2"
     id="layer2"
     inkscape:groupmode="layer" />
</svg>
